<svg width="48" height="48" viewBox="0 0 48 48" fill="none" xmlns="http://www.w3.org/2000/svg">
<g clip-path="url(#clip0_2005_5129)">
<path d="M24.1874 37.9614C24.1877 35.3905 24.9373 32.8753 26.3446 30.7237C27.7519 28.5721 29.7558 26.8774 32.1111 25.8468C34.4665 24.8161 37.0712 24.4944 39.6065 24.9209C42.1418 25.3473 44.4979 26.5035 46.3865 28.248C46.449 23.7286 46.4115 19.2092 46.274 14.6899C46.199 11.5849 44.4458 8.46766 41.5087 6.92735C39.9993 6.12954 38.4355 5.36173 36.854 4.63423C30.6046 6.65548 23.2855 9.32173 15.9037 12.6227C15.1939 12.9364 14.5859 13.4421 14.1481 14.0828C13.7103 14.7235 13.4602 15.4737 13.4258 16.2489C13.3105 19.8114 13.2749 23.4883 13.3218 27.1239C13.3256 27.2305 13.295 27.3356 13.2347 27.4236C13.1744 27.5116 13.0874 27.5779 12.9866 27.6128C12.8858 27.6478 12.7765 27.6495 12.6746 27.6176C12.5728 27.5858 12.4838 27.5222 12.4208 27.4361C11.6396 26.4361 10.8765 25.4473 10.1315 24.4698C10.0765 24.3934 9.99474 24.3405 9.90251 24.3216C9.81028 24.3026 9.71431 24.3191 9.63365 24.3677C9.05428 24.7127 8.48522 25.053 7.92647 25.3886C7.61334 25.5761 7.22803 25.3258 7.22615 24.9405C7.2074 21.3189 7.2974 17.688 7.49147 14.1686C7.57303 12.6845 8.50397 11.2867 9.88115 10.6061C16.9612 7.10923 24.5146 4.25266 30.9599 2.1386C29.4599 1.55173 27.9683 1.0136 26.5124 0.503601C24.5493 -0.170471 22.4174 -0.170471 20.4543 0.503601C15.5962 2.17985 10.2908 4.36798 5.45709 6.92735C2.52084 8.46766 0.76959 11.5849 0.691777 14.6899C0.500527 20.8961 0.500527 27.1023 0.691777 33.3086C0.766777 36.4136 2.52084 39.5308 5.45709 41.0711C10.2908 43.6305 15.5962 45.8186 20.4571 47.4939C22.4202 48.168 24.5521 48.168 26.5152 47.4939C26.9396 47.3477 27.368 47.1967 27.8005 47.0411C25.4729 44.5921 24.1788 41.3401 24.1874 37.9614Z" fill="#FBAE17"/>
<path d="M37.4129 27.9258C35.4276 27.926 33.4869 28.5149 31.8363 29.618C30.1857 30.7211 28.8993 32.2889 28.1397 34.1232C27.3801 35.9574 27.1815 37.9757 27.569 39.9228C27.9565 41.8699 28.9127 43.6584 30.3166 45.0621C31.7206 46.4657 33.5093 47.4216 35.4564 47.8087C37.4036 48.1958 39.4219 47.9969 41.256 47.237C43.0901 46.4771 44.6576 45.1903 45.7604 43.5395C46.8633 41.8887 47.4518 39.9479 47.4516 37.9627C47.4515 36.6445 47.1917 35.3392 46.6872 34.1214C46.1826 32.9036 45.4431 31.7971 44.5109 30.8651C43.5787 29.9331 42.4721 29.1938 41.2542 28.6895C40.0363 28.1852 38.731 27.9257 37.4129 27.9258ZM43.1382 36.3014L37.1044 42.637C36.9402 42.8098 36.7428 42.9475 36.524 43.0419C36.3052 43.1363 36.0696 43.1855 35.8313 43.1864H35.8229C35.586 43.1863 35.3515 43.1387 35.1333 43.0464C34.9151 42.9541 34.7177 42.8191 34.5525 42.6492L31.351 39.3511C31.024 39.0142 30.8443 38.5612 30.8513 38.0918C30.8584 37.6223 31.0516 37.1749 31.3885 36.848C31.7254 36.521 32.1784 36.3413 32.6478 36.3483C33.1172 36.3553 33.5646 36.5486 33.8916 36.8855L35.8125 38.8627L40.576 33.8602C40.9035 33.5392 41.3428 33.3579 41.8014 33.3545C42.2599 33.351 42.7019 33.5256 43.0343 33.8416C43.3666 34.1575 43.5634 34.5901 43.5831 35.0483C43.6028 35.5064 43.444 35.9543 43.14 36.2977L43.1382 36.3014Z" fill="#FBAE17"/>
</g>
<defs>
<clipPath id="clip0_2005_5129">
<rect width="48" height="48" fill="white"/>
</clipPath>
</defs>
</svg>
