<svg width="48" height="48" viewBox="0 0 48 48" fill="none" xmlns="http://www.w3.org/2000/svg">
<path d="M45.943 45.0396H44.012V17.6296L24.0029 7.30273L3.98685 17.6364V45.0396H2.05725C1.77337 45.0396 1.54297 45.27 1.54297 45.5539C1.54297 45.8378 1.77337 46.0682 2.05725 46.0682H45.943C46.2269 46.0682 46.4573 45.8378 46.4573 45.5539C46.4573 45.27 46.2269 45.0396 45.943 45.0396ZM38.9651 45.0396H36.6399C36.655 44.9827 36.6749 44.9279 36.6749 44.8662V39.161C36.6749 38.7825 36.3677 38.4753 35.9891 38.4753H33.6509V39.9633C33.6509 40.2513 33.4177 40.4776 33.1366 40.4776C32.8486 40.4776 32.6223 40.2513 32.6223 39.9633V38.4753H30.284C29.9055 38.4753 29.5983 38.7825 29.5983 39.161V44.8662C29.5983 44.9279 29.6182 44.9827 29.6333 45.0396H28.5347C28.5498 44.9827 28.5697 44.9279 28.5697 44.8662V39.161C28.5697 38.7825 28.2625 38.4753 27.884 38.4753H25.5457V39.9633C25.5457 40.2513 25.3126 40.4776 25.0314 40.4776C24.7434 40.4776 24.5171 40.2513 24.5171 39.9633V38.4753H22.172C21.7935 38.4753 21.4863 38.7825 21.4863 39.161V44.8662C21.4863 44.9279 21.5062 44.9827 21.5213 45.0396H20.4227C20.4378 44.9827 20.4577 44.9279 20.4577 44.8662V39.161C20.4577 38.7825 20.1505 38.4753 19.772 38.4753H17.4337V39.9633C17.4337 40.2513 17.2074 40.4776 16.9194 40.4776C16.6383 40.4776 16.4051 40.2513 16.4051 39.9633V38.4753H14.0669C13.6883 38.4753 13.3811 38.7825 13.3811 39.161V44.8662C13.3811 44.9279 13.401 44.9827 13.4161 45.0396H9.03371V17.9862H38.9651V45.0396Z" fill="#FBAE17"/>
<path d="M2.45783 17.2623L23.8747 6.20861C23.9536 6.16815 24.0475 6.16815 24.1264 6.20861L45.5433 17.2623C45.7257 17.3563 45.9431 17.2239 45.9431 17.0189V13.3894C45.9431 13.2866 45.8855 13.1926 45.7943 13.146L24.1257 1.96198C24.0469 1.92153 23.9529 1.92153 23.8741 1.96198L2.20549 13.146C2.11497 13.1926 2.05737 13.2866 2.05737 13.3887V17.0182C2.05737 17.2239 2.27543 17.357 2.45783 17.2623Z" fill="#FBAE17"/>
<path d="M10.0623 19.0156H37.9365V21.2853H10.0623V19.0156Z" fill="#FBAE17"/>
<path d="M10.0623 22.3145H37.9365V24.591H10.0623V22.3145Z" fill="#FBAE17"/>
<path d="M10.0623 25.6191H37.9365V27.8957H10.0623V25.6191Z" fill="#FBAE17"/>
<path d="M19.772 30.3711H17.4337V31.8591C17.4337 32.1471 17.2074 32.3734 16.9194 32.3734C16.6382 32.3734 16.4051 32.1471 16.4051 31.8591V30.3711H14.0668C13.6883 30.3711 13.3811 30.6783 13.3811 31.0568V36.762C13.3811 37.1405 13.6883 37.4477 14.0668 37.4477H19.772C20.1505 37.4477 20.4577 37.1405 20.4577 36.762V31.0568C20.4577 30.6783 20.1512 30.3711 19.772 30.3711Z" fill="#FBAE17"/>
<path d="M27.884 30.3711H25.5458V31.8591C25.5458 32.1471 25.3126 32.3734 25.0315 32.3734C24.7435 32.3734 24.5172 32.1471 24.5172 31.8591V30.3711H22.172C21.7935 30.3711 21.4863 30.6783 21.4863 31.0568V36.762C21.4863 37.1405 21.7935 37.4477 22.172 37.4477H27.884C28.2626 37.4477 28.5698 37.1405 28.5698 36.762V31.0568C28.5698 30.6783 28.2632 30.3711 27.884 30.3711Z" fill="#FBAE17"/>
</svg>
