<svg width="48" height="48" viewBox="0 0 48 48" fill="none" xmlns="http://www.w3.org/2000/svg">
<path fill-rule="evenodd" clip-rule="evenodd" d="M15.5747 4.42746C14.2915 4.04248 13 5.00338 13 6.3431V43.9991H20V36.9991C20 35.8945 20.8954 34.9991 22 34.9991H26C27.1046 34.9991 28 35.8945 28 36.9991V43.9991H35V11.7431C35 10.8599 34.4206 10.0812 33.5746 9.82746L15.5747 4.42746ZM20 15.9991C19.4477 15.9991 19 16.4468 19 16.9991V18.9991C19 19.5514 19.4477 19.9991 20 19.9991H22C22.5522 19.9991 23 19.5514 23 18.9991V16.9991C23 16.4468 22.5522 15.9991 22 15.9991H20ZM19 22.9991C19 22.4469 19.4477 21.9991 20 21.9991H22C22.5522 21.9991 23 22.4469 23 22.9991V24.9991C23 25.5513 22.5522 25.9991 22 25.9991H20C19.4477 25.9991 19 25.5513 19 24.9991V22.9991ZM20 27.9991C19.4477 27.9991 19 28.4469 19 28.9991V30.9991C19 31.5513 19.4477 31.9991 20 31.9991H22C22.5522 31.9991 23 31.5513 23 30.9991V28.9991C23 28.4469 22.5522 27.9991 22 27.9991H20ZM25 16.9991C25 16.4468 25.4478 15.9991 26 15.9991H28C28.5522 15.9991 29 16.4468 29 16.9991V18.9991C29 19.5514 28.5522 19.9991 28 19.9991H26C25.4478 19.9991 25 19.5514 25 18.9991V16.9991ZM26 21.9991C25.4478 21.9991 25 22.4469 25 22.9991V24.9991C25 25.5513 25.4478 25.9991 26 25.9991H28C28.5522 25.9991 29 25.5513 29 24.9991V22.9991C29 22.4469 28.5522 21.9991 28 21.9991H26ZM25 28.9991C25 28.4469 25.4478 27.9991 26 27.9991H28C28.5522 27.9991 29 28.4469 29 28.9991V30.9991C29 31.5513 28.5522 31.9991 28 31.9991H26C25.4478 31.9991 25 31.5513 25 30.9991V28.9991Z" fill="#FBAE17"/>
<path d="M11 44V10H8C6.89544 10 6 10.8954 6 12V42H5C4.44772 42 4 42.4478 4 43C4 43.5522 4.44772 44 5 44H11Z" fill="#FBAE17"/>
<path d="M43 44H37V17.5625L40.9922 19.8438C41.6154 20.2 42 20.8626 42 21.5804V42H43C43.5522 42 44 42.4478 44 43C44 43.5522 43.5522 44 43 44Z" fill="#FBAE17"/>
<path d="M26 44V37H22V44H26Z" fill="#FBAE17"/>
</svg>
