<svg width="48" height="48" viewBox="0 0 48 48" fill="none" xmlns="http://www.w3.org/2000/svg">
<g clip-path="url(#clip0_2005_5132)">
<path d="M41.2427 32H46C46 32.7956 45.6839 33.5587 45.1213 34.1213C44.5587 34.6839 43.7956 35 43 35H42.475C42.3768 33.8985 41.9472 32.8525 41.2427 32Z" fill="#FBAE17"/>
<path d="M18 32H32.7573C32.053 32.8525 31.6234 33.8985 31.5253 35H18C17.7348 35 17.4805 34.8946 17.2929 34.7071C17.1054 34.5196 17 34.2652 17 34V33C17 32.7348 17.1054 32.4804 17.2929 32.2929C17.4805 32.1054 17.7348 32 18 32Z" fill="#FBAE17"/>
<path d="M37 38.9999C35.0671 38.9999 33.5001 37.4329 33.5001 35.5C33.5001 33.567 35.0671 32 37 32C38.933 32 40.5 33.567 40.5 35.5C40.5 37.4329 38.933 38.9999 37 38.9999Z" fill="#FBAE17"/>
<path d="M0.448219 25.7975L4.29056 17.3447C4.60911 16.6462 5.12156 16.054 5.76697 15.6383C6.41237 15.2226 7.16358 15.0011 7.93125 15H14C14.2652 15 14.5196 15.1054 14.7071 15.2929C14.8946 15.4804 15 15.7348 15 16V31.7329C14.2751 30.9608 13.3424 30.4147 12.3143 30.1605C11.2862 29.9063 10.2065 29.9547 9.20523 30.2999C8.204 30.6452 7.32394 31.2725 6.67103 32.1064C6.01812 32.9403 5.62022 33.9452 5.52525 35H3C2.20435 35 1.44129 34.6839 0.87868 34.1213C0.316071 33.5587 0 32.7956 0 32V27.8664C-1.6038e-05 27.1527 0.152818 26.4472 0.448219 25.7975ZM5.00756 24.9999H11.5C11.7652 24.9999 12.0195 24.8946 12.2071 24.707C12.3946 24.5195 12.4999 24.2652 12.5 24V20C12.5 19.7347 12.3946 19.4804 12.2071 19.2928C12.0195 19.1053 11.7652 18.9999 11.4999 18.9999H7.46953C7.08558 18.9999 6.70973 19.1104 6.38687 19.3182C6.06401 19.526 5.80779 19.8223 5.64881 20.1718L4.09688 23.5862C4.02763 23.7385 3.99772 23.9058 4.00989 24.0727C4.02206 24.2396 4.07593 24.4008 4.16655 24.5415C4.25717 24.6822 4.38165 24.7979 4.52859 24.878C4.67552 24.9581 4.84021 25.0001 5.00756 25V24.9999Z" fill="#FBAE17"/>
<path d="M11 38.9999C9.06705 38.9999 7.50006 37.4329 7.50006 35.5C7.50006 33.567 9.06705 32 11 32C12.933 32 14.5 33.567 14.5 35.5C14.5 37.4329 12.933 38.9999 11 38.9999Z" fill="#FBAE17"/>
<path d="M20.0001 9H43.0001C43.7958 9 44.5588 9.31607 45.1215 9.87868C45.6841 10.4413 46.0001 11.2044 46.0001 12V24H46.947C47.4446 24 47.9064 24.3403 47.9864 24.832C48.0107 24.9755 48.0035 25.1226 47.9651 25.263C47.9268 25.4034 47.8582 25.5338 47.7643 25.645C47.6704 25.7562 47.5534 25.8456 47.4214 25.9069C47.2894 25.9682 47.1456 26 47.0001 26.0001H44.5532C44.055 26.0001 43.5934 26.3404 43.5133 26.8321C43.489 26.9756 43.4963 27.1227 43.5346 27.2631C43.573 27.4035 43.6415 27.5338 43.7354 27.645C43.8293 27.7562 43.9463 27.8456 44.0783 27.9069C44.2103 27.9683 44.3541 28.0001 44.4997 28.0001H46.9465C47.4446 28 47.9064 28.3406 47.9864 28.832C48.0107 28.9755 48.0035 29.1225 47.9651 29.263C47.9268 29.4034 47.8582 29.5337 47.7643 29.6449C47.6704 29.7561 47.5534 29.8455 47.4214 29.9068C47.2894 29.9681 47.1456 29.9999 47.0001 30H18.0001C17.7349 30 17.4805 29.8946 17.293 29.7071C17.1054 29.5196 17.0001 29.2652 17.0001 29V12C17.0001 11.2044 17.3161 10.4413 17.8788 9.87868C18.4414 9.31607 19.2044 9 20.0001 9Z" fill="#FBAE17"/>
</g>
<defs>
<clipPath id="clip0_2005_5132">
<rect width="48" height="48" fill="white" transform="matrix(-1 0 0 1 48 0)"/>
</clipPath>
</defs>
</svg>
