<svg width="48" height="48" viewBox="0 0 48 48" fill="none" xmlns="http://www.w3.org/2000/svg">
<g clip-path="url(#clip0_2001_5101)">
<path d="M44.4637 40.6088H43.6378V19.9829C42.8684 19.6511 42.2119 19.1006 41.7531 18.4088C40.9907 19.5594 39.6848 20.3217 38.2025 20.3217C36.7201 20.3217 35.4143 19.5594 34.6519 18.4088C33.8895 19.5594 32.5837 20.3217 31.1013 20.3217C29.619 20.3217 28.3131 19.5594 27.5507 18.4088C26.7884 19.5594 25.4825 20.3217 24.0001 20.3217C22.5178 20.3217 21.2119 19.5594 20.4495 18.4088C19.6872 19.5594 18.3884 20.3217 16.906 20.3217C15.4166 20.3217 14.1037 19.5523 13.3413 18.3876C12.5719 19.5241 11.2801 20.2723 9.80484 20.2723C8.32249 20.2723 7.0166 19.51 6.25425 18.3594C5.79543 19.0511 5.13896 19.6088 4.36249 19.9335V40.6088H3.53661C2.68249 40.6088 1.99072 41.3006 1.99072 42.1547V45.0911H46.0095V42.1547C46.0095 41.3006 45.3178 40.6088 44.4637 40.6088ZM20.7813 40.6088H9.16955V26.2864C9.16955 25.3264 9.94602 24.5429 10.9131 24.5429H19.0378C19.9978 24.5429 20.7813 25.3264 20.7813 26.2864V40.6088ZM38.026 33.8747C38.026 34.4958 37.5248 34.997 36.9037 34.997H27.4378C26.8166 34.997 26.3084 34.4958 26.3084 33.8747V25.3123C26.3084 24.6911 26.8166 24.19 27.4378 24.19H36.9037C37.5248 24.19 38.026 24.6911 38.026 25.3123V33.8747Z" fill="#FBAE17"/>
<path d="M42.2543 14.1109H47.739L45.5719 9.5227C45.339 9.02858 44.8449 8.71094 44.2943 8.71094H40.4402L42.2543 14.1109Z" fill="#FBAE17"/>
<path d="M7.56713 8.66211H3.71302C3.16949 8.66211 2.66831 8.97976 2.43537 9.47387L0.268311 14.0621H5.74596L7.56713 8.66211Z" fill="#FBAE17"/>
<path d="M42.459 15.5215V16.065C42.459 17.6321 43.7296 18.9097 45.3037 18.9097C46.8707 18.9097 48.1413 17.6321 48.1413 16.065V15.5215H42.459Z" fill="#FBAE17"/>
<path d="M38.2024 18.9097C39.7694 18.9097 41.0471 17.6321 41.0471 16.065V15.5215H35.3577V16.065C35.3577 17.6321 36.6353 18.9097 38.2024 18.9097Z" fill="#FBAE17"/>
<path d="M32.9719 10.0662L32.6966 8.71094H27.8472L28.2142 14.1109H33.7907L32.9719 10.0662Z" fill="#FBAE17"/>
<path d="M6.95996 16.0156C6.95996 17.5827 8.23761 18.8603 9.80467 18.8603C11.3717 18.8603 12.6494 17.5827 12.6494 16.0156V15.5215H6.95996V16.0156Z" fill="#FBAE17"/>
<path d="M38.9506 8.71094H34.1365L34.9553 12.7556L35.2306 14.1109H40.7647L38.9506 8.71094Z" fill="#FBAE17"/>
<path d="M14.0613 16.065C14.0613 17.6321 15.3319 18.9097 16.906 18.9097C18.473 18.9097 19.7436 17.6321 19.7436 16.065V15.5215H14.0613V16.065Z" fill="#FBAE17"/>
<path d="M5.5483 16.0162V15.4727H-0.141113V16.0162C-0.141113 17.5832 1.13653 18.8609 2.70359 18.8609C4.27065 18.8609 5.5483 17.5832 5.5483 16.0162Z" fill="#FBAE17"/>
<path d="M13.8637 8.71094H9.05659L7.25659 14.0615H12.7837L13.8637 8.71094Z" fill="#FBAE17"/>
<path d="M21.5719 8.71094L21.2048 14.1109H26.7954L26.4354 8.71094H21.5719Z" fill="#FBAE17"/>
<path d="M31.1013 18.9097C32.6684 18.9097 33.946 17.6321 33.946 16.065V15.5215H28.2566V16.065C28.2566 17.6321 29.5342 18.9097 31.1013 18.9097Z" fill="#FBAE17"/>
<path d="M20.153 8.71094H15.3107L14.2166 14.1109H19.793L20.153 8.71094Z" fill="#FBAE17"/>
<path d="M21.1553 16.065C21.1553 17.6321 22.4329 18.9097 24 18.9097C25.567 18.9097 26.8447 17.6321 26.8447 16.065V15.5215H21.1553V16.065Z" fill="#FBAE17"/>
<path d="M9.5223 7.29879H43.6376V5.86585C43.6376 4.23526 42.3176 2.9082 40.687 2.9082H7.31995C5.68936 2.9082 4.3623 4.23526 4.3623 5.86585V7.24938H9.53642L9.5223 7.29879Z" fill="#FBAE17"/>
</g>
<defs>
<clipPath id="clip0_2001_5101">
<rect width="48" height="48" fill="white"/>
</clipPath>
</defs>
</svg>
