<svg width="48" height="48" viewBox="0 0 48 48" fill="none" xmlns="http://www.w3.org/2000/svg">
<path d="M16.83 31.14C14.5 32.97 13 35.81 13 39V42H7C5.34 42 4 40.66 4 39V37C4 33.13 7.13 30 11 30H13C14.42 30 15.73 30.42 16.83 31.14Z" fill="#FBAE17"/>
<path d="M36 30C38.4853 30 40.5 27.9853 40.5 25.5C40.5 23.0147 38.4853 21 36 21C33.5147 21 31.5 23.0147 31.5 25.5C31.5 27.9853 33.5147 30 36 30Z" fill="#FBAE17"/>
<path d="M12 30C14.4853 30 16.5 27.9853 16.5 25.5C16.5 23.0147 14.4853 21 12 21C9.51472 21 7.5 23.0147 7.5 25.5C7.5 27.9853 9.51472 30 12 30Z" fill="#FBAE17"/>
<path d="M43.9999 37V39C43.9999 40.66 42.6599 42 40.9999 42H34.9999V39C34.9999 35.81 33.4999 32.97 31.1699 31.14C32.2699 30.42 33.5799 30 34.9999 30H36.9999C40.8699 30 43.9999 33.13 43.9999 37Z" fill="#FBAE17"/>
<path d="M24 31C27.0376 31 29.5 28.5376 29.5 25.5C29.5 22.4624 27.0376 20 24 20C20.9624 20 18.5 22.4624 18.5 25.5C18.5 28.5376 20.9624 31 24 31Z" fill="#FBAE17"/>
<path d="M25 31H23C18.589 31 15 34.589 15 39V42C15 43.654 16.346 45 18 45H30C31.654 45 33 43.654 33 42V39C33 34.589 29.411 31 25 31Z" fill="#FBAE17"/>
<path d="M38.4999 16.6833L36.0869 17.5413C35.4019 17.7843 34.6869 17.2653 34.7069 16.5383L34.7769 13.9783L33.2149 11.9483C32.7719 11.3723 33.0449 10.5313 33.7419 10.3253L36.1989 9.60131L37.6469 7.48831C38.0579 6.88931 38.9419 6.88931 39.3529 7.48831L40.8009 9.60131L43.2579 10.3253C43.9549 10.5303 44.2279 11.3723 43.7849 11.9483L42.2229 13.9783L42.2929 16.5383C42.3129 17.2643 41.5969 17.7843 40.9129 17.5413L38.4999 16.6833Z" fill="#FBAE17"/>
<path d="M9.49991 16.6833L7.08691 17.5413C6.40191 17.7843 5.68691 17.2653 5.70691 16.5383L5.77691 13.9783L4.21491 11.9483C3.77191 11.3723 4.04491 10.5313 4.74191 10.3253L7.19891 9.60131L8.64691 7.48831C9.05791 6.88931 9.94191 6.88931 10.3529 7.48831L11.8009 9.60131L14.2579 10.3253C14.9549 10.5303 15.2279 11.3723 14.7849 11.9483L13.2229 13.9783L13.2929 16.5383C13.3129 17.2643 12.5969 17.7843 11.9129 17.5413L9.49991 16.6833Z" fill="#FBAE17"/>
<path d="M24.0001 14.4333L21.1391 15.4503C20.3271 15.7393 19.4791 15.1223 19.5031 14.2613L19.5861 11.2263L17.7341 8.8193C17.2091 8.1363 17.5331 7.1393 18.3591 6.8953L21.2721 6.0363L22.9891 3.5313C23.4761 2.8203 24.5251 2.8203 25.0121 3.5313L26.7291 6.0363L29.6421 6.8953C30.4681 7.1393 30.7921 8.1363 30.2671 8.8193L28.4151 11.2263L28.4981 14.2613C28.5221 15.1223 27.6731 15.7393 26.8621 15.4503L24.0001 14.4333Z" fill="#FBAE17"/>
</svg>
