<svg width="24" height="24" viewBox="0 0 24 24" fill="none" xmlns="http://www.w3.org/2000/svg">
<path d="M20.4008 5.99961C15.414 5.99761 13.1872 2.95601 12.5804 1.93161C12.4588 1.72601 12.24 1.59961 12.0008 1.59961C11.7616 1.59961 11.5432 1.72601 11.4212 1.93161C10.8144 2.95601 8.58758 5.99761 3.60078 5.99961C3.15918 5.99961 2.80078 6.35801 2.80078 6.79961V10.7996C2.80078 18.438 9.43078 21.8576 11.1812 22.6268C11.4408 22.7408 11.7176 22.7996 12.0008 22.7996C12.284 22.7996 12.5608 22.7408 12.8204 22.6268C14.5708 21.8576 21.2008 18.438 21.2008 10.7996V6.79961C21.2008 6.35801 20.8424 5.99961 20.4008 5.99961ZM17.132 13.4396C15.9424 15.326 14.4008 16.3996 12.0008 16.3996C9.60078 16.3996 8.06358 15.3344 6.87478 13.456C6.77638 13.3004 6.77638 13.0988 6.87478 12.9436C8.06358 11.0648 9.60078 9.99961 12.0008 9.99961C14.4008 9.99961 15.9424 11.0732 17.132 12.9596C17.224 13.1052 17.224 13.294 17.132 13.4396Z" fill="#FBAE17"/>
<path d="M12.0004 14.7996C12.884 14.7996 13.6004 14.0832 13.6004 13.1996C13.6004 12.316 12.884 11.5996 12.0004 11.5996C11.1168 11.5996 10.4004 12.316 10.4004 13.1996C10.4004 14.0832 11.1168 14.7996 12.0004 14.7996Z" fill="#FBAE17"/>
</svg>
