<svg width="24" height="24" viewBox="0 0 24 24" fill="none" xmlns="http://www.w3.org/2000/svg">
<g clip-path="url(#clip0_2039_5115)">
<path d="M12.093 18.9817C12.0931 17.6962 12.4679 16.4386 13.1716 15.3628C13.8752 14.287 14.8772 13.4397 16.0548 12.9244C17.2325 12.409 18.5348 12.2482 19.8025 12.4614C21.0702 12.6746 22.2482 13.2527 23.1925 14.125C23.2238 11.8653 23.205 9.60559 23.1363 7.3459C23.0988 5.7934 22.2222 4.23481 20.7536 3.46465C19.9989 3.06575 19.217 2.68184 18.4263 2.31809C15.3016 3.32871 11.642 4.66184 7.95109 6.31231C7.59623 6.46917 7.29222 6.72202 7.07332 7.04236C6.85443 7.36271 6.72935 7.73782 6.71219 8.12543C6.65453 9.90668 6.63672 11.7451 6.66016 13.5629C6.66205 13.6162 6.64679 13.6688 6.61663 13.7128C6.58647 13.7568 6.54299 13.7899 6.49259 13.8074C6.44218 13.8249 6.3875 13.8257 6.33659 13.8098C6.28567 13.7939 6.24119 13.7621 6.20969 13.719C5.81906 13.219 5.4375 12.7247 5.065 12.2359C5.0375 12.1977 4.99664 12.1712 4.95052 12.1618C4.90441 12.1523 4.85642 12.1605 4.81609 12.1848C4.52641 12.3573 4.24188 12.5275 3.9625 12.6953C3.80594 12.789 3.61328 12.6639 3.61234 12.4712C3.60297 10.6604 3.64797 8.84497 3.745 7.08528C3.78578 6.34325 4.25125 5.64434 4.93984 5.30403C8.47984 3.55559 12.2566 2.12731 15.4792 1.07028C14.7292 0.77684 13.9834 0.507777 13.2555 0.252777C12.2739 -0.0842591 11.208 -0.0842591 10.2264 0.252777C7.79734 1.0909 5.14469 2.18496 2.72781 3.46465C1.25969 4.23481 0.384063 5.7934 0.345156 7.3459C0.249531 10.449 0.249531 13.5522 0.345156 16.6553C0.382656 18.2078 1.25969 19.7664 2.72781 20.5365C5.14469 21.8162 7.79734 22.9103 10.2278 23.7479C11.2094 24.085 12.2753 24.085 13.2569 23.7479C13.4691 23.6748 13.6833 23.5993 13.8995 23.5215C12.7357 22.297 12.0887 20.671 12.093 18.9817Z" fill="#FBAE17"/>
<path d="M18.7059 13.9629C17.7133 13.963 16.743 14.2574 15.9177 14.809C15.0924 15.3606 14.4491 16.1445 14.0694 17.0616C13.6896 17.9787 13.5903 18.9878 13.784 19.9614C13.9778 20.935 14.4559 21.8292 15.1578 22.531C15.8598 23.2329 16.7541 23.7108 17.7277 23.9044C18.7013 24.0979 19.7104 23.9984 20.6275 23.6185C21.5445 23.2385 22.3283 22.5952 22.8797 21.7698C23.4311 20.9444 23.7254 19.974 23.7253 18.9813C23.7253 18.3222 23.5954 17.6696 23.3431 17.0607C23.0908 16.4518 22.7211 15.8986 22.255 15.4326C21.7889 14.9666 21.2356 14.5969 20.6266 14.3448C20.0177 14.0926 19.365 13.9628 18.7059 13.9629ZM21.5686 18.1507L18.5517 21.3185C18.4696 21.4049 18.3709 21.4737 18.2615 21.5209C18.1521 21.5681 18.0343 21.5927 17.9152 21.5932H17.9109C17.7925 21.5931 17.6753 21.5693 17.5662 21.5232C17.4571 21.4771 17.3583 21.4095 17.2758 21.3246L15.675 19.6755C15.5115 19.5071 15.4217 19.2806 15.4252 19.0459C15.4287 18.8112 15.5253 18.5875 15.6938 18.424C15.8622 18.2605 16.0887 18.1706 16.3234 18.1742C16.5581 18.1777 16.7818 18.2743 16.9453 18.4427L17.9058 19.4313L20.2875 16.9301C20.4513 16.7696 20.6709 16.679 20.9002 16.6772C21.1295 16.6755 21.3505 16.7628 21.5166 16.9208C21.6828 17.0788 21.7812 17.2951 21.7911 17.5241C21.8009 17.7532 21.7215 17.9772 21.5695 18.1488L21.5686 18.1507Z" fill="#FBAE17"/>
</g>
<defs>
<clipPath id="clip0_2039_5115">
<rect width="24" height="24" fill="white"/>
</clipPath>
</defs>
</svg>
