<svg width="24" height="24" viewBox="0 0 24 24" fill="none" xmlns="http://www.w3.org/2000/svg">
<g clip-path="url(#clip0_2039_5117)">
<path d="M12 8C14.2091 8 16 6.20914 16 4C16 1.79086 14.2091 0 12 0C9.79086 0 8 1.79086 8 4C8 6.20914 9.79086 8 12 8Z" fill="#FBAE17"/>
<path d="M4.21094 21.5C6.42008 21.5 8.21094 19.7091 8.21094 17.5C8.21094 15.2909 6.42008 13.5 4.21094 13.5C2.0018 13.5 0.210938 15.2909 0.210938 17.5C0.210938 19.7091 2.0018 21.5 4.21094 21.5Z" fill="#FBAE17"/>
<path d="M2.94497 12.9932C2.98197 12.9971 3.01916 12.999 3.05637 12.9991C3.30231 12.9987 3.53951 12.9078 3.72262 12.7436C3.90573 12.5794 4.02192 12.3535 4.04897 12.1091C4.16212 11.0717 4.47854 10.0669 4.98015 9.15188C5.48176 8.23688 6.15872 7.42967 6.97237 6.77637C7.17343 6.60796 7.30027 6.3673 7.32558 6.10625C7.35088 5.84521 7.27262 5.58467 7.10766 5.38078C6.94269 5.17689 6.70423 5.04596 6.44365 5.01622C6.18307 4.98648 5.92124 5.06029 5.71457 5.22177C4.69752 6.0387 3.85137 7.04798 3.22443 8.19197C2.59748 9.33595 2.20204 10.5922 2.06067 11.8891C2.03172 12.1527 2.10859 12.4171 2.27439 12.6241C2.44019 12.8311 2.68137 12.9638 2.94497 12.9932Z" fill="#FBAE17"/>
<path d="M14.6674 20.5453C12.9406 21.1488 11.0602 21.1488 9.3334 20.5453C9.08321 20.457 8.80818 20.4717 8.56882 20.5862C8.32945 20.7006 8.14537 20.9055 8.05705 21.1557C7.96873 21.4059 7.98342 21.6809 8.09788 21.9203C8.21235 22.1596 8.41721 22.3437 8.6674 22.432C10.8248 23.1899 13.176 23.1899 15.3334 22.432C15.5836 22.3437 15.7885 22.1596 15.9029 21.9203C16.0174 21.6809 16.0321 21.4059 15.9437 21.1557C15.8554 20.9055 15.6713 20.7006 15.432 20.5862C15.1926 20.4717 14.9176 20.457 14.6674 20.5453Z" fill="#FBAE17"/>
<path d="M19.9511 12.1103C19.9782 12.3548 20.0943 12.5807 20.2775 12.7449C20.4606 12.9091 20.6978 13 20.9437 13.0003C20.9809 13.0003 21.0181 12.9984 21.0551 12.9944C21.1857 12.9801 21.3122 12.9402 21.4274 12.8769C21.5426 12.8136 21.6442 12.7283 21.7263 12.6258C21.8085 12.5232 21.8697 12.4055 21.9063 12.2793C21.943 12.1531 21.9544 12.0209 21.9399 11.8903C21.6683 9.44507 20.5031 7.18629 18.6679 5.54764C18.4699 5.37364 18.2112 5.28486 17.948 5.30062C17.6849 5.31638 17.4386 5.4354 17.2628 5.6318C17.0869 5.8282 16.9958 6.08608 17.0091 6.34936C17.0224 6.61263 17.1391 6.85999 17.3339 7.03764C18.8021 8.34785 19.7343 10.1545 19.9511 12.1103Z" fill="#FBAE17"/>
<path d="M19.7891 21.5C21.9982 21.5 23.7891 19.7091 23.7891 17.5C23.7891 15.2909 21.9982 13.5 19.7891 13.5C17.5799 13.5 15.7891 15.2909 15.7891 17.5C15.7891 19.7091 17.5799 21.5 19.7891 21.5Z" fill="#FBAE17"/>
</g>
<defs>
<clipPath id="clip0_2039_5117">
<rect width="24" height="24" fill="white"/>
</clipPath>
</defs>
</svg>
