<svg width="101" height="100" viewBox="0 0 101 100" fill="none" xmlns="http://www.w3.org/2000/svg">
<rect x="0.332031" width="100" height="100" rx="50" fill="#004687"/>
<g clip-path="url(#clip0_2053_5068)">
<path d="M36.3708 53.5573C35.9208 54.1972 36.0791 55.0779 36.7186 55.5223L37.6851 56.1935C36.1076 57.7155 33.9922 58.5767 31.7827 58.5767H29.1445V55.5298C29.1445 54.7532 28.5149 54.1236 27.7383 54.1236C26.9617 54.1236 26.332 54.7532 26.332 55.5298V69.8736C26.332 70.6502 26.9617 71.2798 27.7383 71.2798C28.5149 71.2798 29.1445 70.6502 29.1445 69.8736V67.0142H31.0507C36.0974 67.0142 41.0328 64.8921 44.5387 60.9532L45.9455 61.9302C46.5842 62.3762 47.4703 62.2125 47.9095 61.5664L48.8733 60.1517L37.4648 52.0039L36.3708 53.5573Z" fill="#FBAE17"/>
<path d="M73.7184 53.6864L73.2 53.332L62.4141 61.9505L65.5003 64.1723C66.103 64.6061 66.9458 64.4965 67.4156 63.9136L74.0194 55.7311C74.5371 55.0894 74.393 54.1464 73.7184 53.6864Z" fill="#FBAE17"/>
<path d="M71.5354 48.7794L44.4953 29.2518C43.2808 28.3745 41.5944 28.6025 40.6561 29.7705L31.7695 40.8316C30.7588 42.0898 31.0139 43.9437 32.3276 44.8818L56.2498 61.9654C56.7611 62.3305 57.4533 62.3125 57.9448 61.9197L71.5899 51.0181C72.3149 50.439 72.2899 49.3242 71.5354 48.7794ZM61.5823 51.2662C60.8056 51.2662 60.176 50.6366 60.176 49.86C60.176 49.0833 60.8056 48.4537 61.5823 48.4537C62.3589 48.4537 62.9885 49.0833 62.9885 49.86C62.9885 50.6366 62.3589 51.2662 61.5823 51.2662Z" fill="#FBAE17"/>
</g>
<defs>
<clipPath id="clip0_2053_5068">
<rect width="48" height="48" fill="white" transform="translate(26.332 26)"/>
</clipPath>
</defs>
</svg>
