<?xml version="1.0" encoding="UTF-8"?>
<svg xmlns="http://www.w3.org/2000/svg" xmlns:xlink="http://www.w3.org/1999/xlink" width="16px" height="16px" viewBox="0 0 16 16" version="1.1">
<g id="surface1">
<path style=" stroke:none;fill-rule:nonzero;fill:rgb(16.470589%,37.254903%,61.960787%);fill-opacity:1;" d="M 5.5 15.074219 L 5.5 11.625 L 2.925781 13.523438 C 3.648438 14.199219 4.523438 14.726562 5.5 15.074219 "/>
<path style=" stroke:none;fill-rule:nonzero;fill:rgb(16.470589%,37.254903%,61.960787%);fill-opacity:1;" d="M 10.5 15.074219 C 11.476562 14.726562 12.351562 14.199219 13.074219 13.523438 L 10.5 11.601562 L 10.5 15.074219 "/>
<path style=" stroke:none;fill-rule:nonzero;fill:rgb(16.470589%,37.254903%,61.960787%);fill-opacity:1;" d="M 0.925781 10.5 C 1 10.75 1.101562 10.976562 1.226562 11.226562 L 2.199219 10.5 L 0.925781 10.5 "/>
<path style=" stroke:none;fill-rule:nonzero;fill:rgb(16.470589%,37.254903%,61.960787%);fill-opacity:1;" d="M 13.800781 10.5 L 14.773438 11.226562 C 14.875 11 14.976562 10.75 15.074219 10.5 L 13.800781 10.5 "/>
<path style=" stroke:none;fill-rule:nonzero;fill:rgb(100%,100%,100%);fill-opacity:1;" d="M 5.875 9.5 L 0.648438 9.5 C 0.726562 9.851562 0.824219 10.175781 0.925781 10.5 L 2.199219 10.5 L 1.226562 11.226562 C 1.425781 11.648438 1.648438 12.023438 1.925781 12.398438 L 4.5 10.5 L 5.5 10.5 L 5.5 11 L 2.574219 13.148438 L 2.925781 13.5 L 5.5 11.625 L 5.5 15.074219 C 5.824219 15.199219 6.148438 15.273438 6.5 15.351562 L 6.5 9.5 L 5.875 9.5 "/>
<path style=" stroke:none;fill-rule:nonzero;fill:rgb(100%,100%,100%);fill-opacity:1;" d="M 15.351562 9.5 L 9.5 9.5 L 9.5 15.351562 C 9.851562 15.273438 10.175781 15.175781 10.5 15.074219 L 10.5 11.625 L 13.074219 13.5 C 13.425781 13.175781 13.726562 12.824219 14.023438 12.449219 L 11.351562 10.5 L 13.050781 10.5 L 14.574219 11.625 C 14.648438 11.5 14.726562 11.351562 14.773438 11.226562 L 13.800781 10.5 L 15.074219 10.5 C 15.175781 10.175781 15.273438 9.851562 15.351562 9.5 "/>
<path style=" stroke:none;fill-rule:nonzero;fill:rgb(92.941177%,29.803923%,36.078432%);fill-opacity:1;" d="M 1.925781 12.398438 C 2.125 12.675781 2.324219 12.925781 2.550781 13.175781 L 5.5 11.023438 L 5.5 10.523438 L 4.5 10.523438 L 1.925781 12.398438 "/>
<path style=" stroke:none;fill-rule:nonzero;fill:rgb(92.941177%,29.803923%,36.078432%);fill-opacity:1;" d="M 11.375 10.5 L 14.050781 12.449219 C 14.148438 12.324219 14.226562 12.199219 14.324219 12.074219 C 14.351562 12.050781 14.351562 12.023438 14.375 12.023438 C 14.449219 11.898438 14.550781 11.75 14.625 11.625 L 13.050781 10.5 L 11.375 10.5 "/>
<path style=" stroke:none;fill-rule:nonzero;fill:rgb(16.470589%,37.254903%,61.960787%);fill-opacity:1;" d="M 10.5 0.925781 L 10.5 4.375 L 13.074219 2.476562 C 12.351562 1.800781 11.476562 1.273438 10.5 0.925781 "/>
<path style=" stroke:none;fill-rule:nonzero;fill:rgb(16.470589%,37.254903%,61.960787%);fill-opacity:1;" d="M 5.5 0.925781 C 4.523438 1.273438 3.648438 1.800781 2.925781 2.476562 L 5.5 4.398438 L 5.5 0.925781 "/>
<path style=" stroke:none;fill-rule:nonzero;fill:rgb(16.470589%,37.254903%,61.960787%);fill-opacity:1;" d="M 15.074219 5.5 C 15 5.25 14.898438 5.023438 14.773438 4.773438 L 13.800781 5.5 L 15.074219 5.5 "/>
<path style=" stroke:none;fill-rule:nonzero;fill:rgb(16.470589%,37.254903%,61.960787%);fill-opacity:1;" d="M 2.199219 5.5 L 1.226562 4.773438 C 1.125 5.023438 1.023438 5.25 0.925781 5.5 L 2.199219 5.5 "/>
<path style=" stroke:none;fill-rule:nonzero;fill:rgb(100%,100%,100%);fill-opacity:1;" d="M 10.125 6.5 L 15.324219 6.5 C 15.25 6.148438 15.148438 5.824219 15.050781 5.5 L 13.773438 5.5 L 14.75 4.773438 C 14.550781 4.351562 14.324219 3.976562 14.050781 3.601562 L 11.5 5.5 L 10.5 5.5 L 10.5 5 L 13.425781 2.851562 L 13.074219 2.5 L 10.5 4.375 L 10.5 0.925781 C 10.175781 0.800781 9.851562 0.726562 9.5 0.648438 L 9.5 6.5 L 10.125 6.5 "/>
<path style=" stroke:none;fill-rule:nonzero;fill:rgb(100%,100%,100%);fill-opacity:1;" d="M 0.648438 6.5 L 6.5 6.5 L 6.5 0.648438 C 6.148438 0.726562 5.824219 0.824219 5.5 0.925781 L 5.5 4.375 L 2.925781 2.5 C 2.574219 2.824219 2.273438 3.175781 1.976562 3.550781 L 4.648438 5.5 L 2.949219 5.5 L 1.425781 4.375 C 1.351562 4.5 1.273438 4.648438 1.226562 4.773438 L 2.199219 5.5 L 0.925781 5.5 C 0.824219 5.824219 0.726562 6.148438 0.648438 6.5 "/>
<path style=" stroke:none;fill-rule:nonzero;fill:rgb(92.941177%,29.803923%,36.078432%);fill-opacity:1;" d="M 14.074219 3.601562 C 13.875 3.324219 13.675781 3.074219 13.449219 2.824219 L 10.5 4.976562 L 10.5 5.476562 L 11.5 5.476562 L 14.074219 3.601562 "/>
<path style=" stroke:none;fill-rule:nonzero;fill:rgb(92.941177%,29.803923%,36.078432%);fill-opacity:1;" d="M 4.625 5.5 L 1.976562 3.550781 C 1.875 3.675781 1.800781 3.800781 1.699219 3.925781 C 1.675781 3.949219 1.675781 3.976562 1.648438 3.976562 C 1.574219 4.101562 1.476562 4.25 1.398438 4.375 L 2.925781 5.5 L 4.625 5.5 "/>
<path style=" stroke:none;fill-rule:nonzero;fill:rgb(92.941177%,29.803923%,36.078432%);fill-opacity:1;" d="M 15.351562 6.5 L 9.5 6.5 L 9.5 0.648438 C 9.023438 0.550781 8.523438 0.5 8 0.5 C 7.476562 0.5 6.976562 0.550781 6.5 0.648438 L 6.5 6.5 L 0.648438 6.5 C 0.550781 6.976562 0.5 7.476562 0.5 8 C 0.5 8.523438 0.550781 9.023438 0.648438 9.5 L 6.5 9.5 L 6.5 15.351562 C 6.976562 15.449219 7.476562 15.5 8 15.5 C 8.523438 15.5 9.023438 15.449219 9.5 15.351562 L 9.5 9.5 L 15.351562 9.5 C 15.449219 9.023438 15.5 8.523438 15.5 8 C 15.5 7.476562 15.449219 6.976562 15.351562 6.5 "/>
</g>
</svg>
