<svg width="101" height="100" viewBox="0 0 101 100" fill="none" xmlns="http://www.w3.org/2000/svg">
<rect x="0.666016" width="100" height="100" rx="50" fill="#004687"/>
<g clip-path="url(#clip0_2053_5062)">
<path d="M56.2518 38.0476C56.1126 38.5493 55.9354 39.1961 56.1774 40.0028L56.1704 40.0064C55.9183 40.1325 55.7235 40.3592 55.6358 40.6285C55.5468 40.9018 55.5703 41.1923 55.7002 41.4433L56.4447 42.8987C55.9601 43.1899 55.7515 43.7947 55.9491 44.3674L57.9451 50.1515C58.1047 50.6107 58.4592 50.9798 58.9176 51.1641C59.1339 51.2511 59.3625 51.2942 59.591 51.2942C59.8758 51.2942 60.1606 51.2272 60.4214 51.0941L63.6541 49.4412C64.1017 49.2128 64.4346 48.8058 64.5674 48.3244C64.699 47.848 64.6234 47.3343 64.3602 46.9151L61.1261 41.7596C60.793 41.2393 60.1587 41.0396 59.6263 41.2718L58.8803 39.8133C58.7506 39.5627 58.5314 39.3764 58.2633 39.2886C58.0325 39.2131 57.7894 39.2189 57.5679 39.3008C57.546 39.0309 57.6157 38.778 57.7064 38.4511C57.7987 38.1183 57.9034 37.741 57.9034 37.2989C57.9034 33.7976 55.0548 30.949 51.5534 30.949H48.1031C48.0508 30.3745 47.5669 29.9228 46.979 29.9228H44.9632C44.5811 29.2149 43.942 28.665 43.1702 28.4013V27.6071C43.1702 26.7221 42.4481 26 41.5658 26H31.3854C31.179 26 31.0162 26.1737 31.0324 26.3801L31.0786 26.9475C31.1112 27.3574 31.3935 27.6859 31.7953 27.7809L39.0965 29.4975L31.2845 32.9406C30.9031 33.1087 30.7302 33.5542 30.8983 33.9356C31.0228 34.2181 31.2993 34.3862 31.5893 34.3862C31.691 34.3862 31.7944 34.3655 31.8933 34.3219L38.9267 31.222C38.9166 31.3713 38.9163 31.5232 38.9274 31.6774C38.9755 32.3408 39.2296 32.9504 39.6246 33.4433V36.1076C36.414 36.9147 34.0295 39.8248 34.0295 43.2823V67.3705H50.5761V43.2823C50.5761 39.704 48.0223 36.7115 44.6417 36.0304V33.482H46.979C47.566 33.482 48.0494 33.0317 48.103 32.4585H51.5534C54.2225 32.4585 56.3939 34.6299 56.3939 37.2989C56.3939 37.5355 56.328 37.7728 56.2518 38.0476ZM47.5546 43.2823C47.5546 43.6991 47.2168 44.037 46.7999 44.037C46.383 44.037 46.0451 43.6991 46.0451 43.2823C46.0451 41.7 44.7591 40.4128 43.1784 40.4128C42.7615 40.4128 42.4236 40.0749 42.4236 39.658C42.4236 39.2412 42.7615 38.9033 43.1784 38.9033C45.5915 38.9033 47.5546 40.8677 47.5546 43.2823Z" fill="#FBAE17"/>
<path d="M34.0293 70.2471C34.0293 72.3159 35.7111 73.999 37.7784 73.999H46.8241C48.8928 73.999 50.5759 72.3159 50.5759 70.2471V68.8789H34.0293V70.2471Z" fill="#FBAE17"/>
<path d="M68.6335 60.0459L68.6238 60.0336C68.4038 59.7585 68.0522 59.6307 67.7072 59.6998L67.679 59.706C67.3336 59.789 67.0679 60.0536 66.9837 60.4048C66.9158 60.7021 66.8282 60.9765 66.7222 61.2262C66.8556 59.1091 66.5774 57.318 65.8821 55.7895C65.0962 54.0615 63.9021 52.9384 62.7297 51.9827C62.4227 51.7318 61.9897 51.704 61.6508 51.9129C61.302 52.126 61.1354 52.5317 61.2342 52.9272C61.6526 54.6654 60.3338 56.2557 58.8068 58.0968C57.0954 60.1605 55.1555 62.4995 55.1121 65.7239C55.0543 70.148 58.1465 72.7774 59.4795 73.7031C59.8505 73.9599 60.3513 73.9141 60.6708 73.5946L60.6826 73.5826C60.9959 73.255 61.0296 72.7523 60.765 72.3906C59.7829 71.0323 59.5537 69.6494 60.058 67.8204C60.0903 67.8684 60.1231 67.9156 60.1567 67.962C60.4016 68.3075 60.8477 68.4421 61.2441 68.2918C61.6396 68.1447 61.8858 67.7504 61.8437 67.3268C61.6867 65.7858 61.9679 64.4706 62.7443 63.1988C63.108 64.4681 63.7994 65.4197 64.4281 66.285C65.6944 68.0276 66.6093 69.2867 64.7056 72.5919C64.4743 72.9822 64.5631 73.4888 64.9109 73.7778C65.085 73.9251 65.2982 73.9988 65.5111 73.9988C65.7204 73.9988 65.9294 73.9275 66.1004 73.785C71.193 69.5976 72.1163 64.5899 68.6335 60.0459Z" fill="#FBAE17"/>
</g>
<defs>
<clipPath id="clip0_2053_5062">
<rect width="48" height="48" fill="white" transform="translate(26.666 26)"/>
</clipPath>
</defs>
</svg>
