<svg width="101" height="100" viewBox="0 0 101 100" fill="none" xmlns="http://www.w3.org/2000/svg">
<rect x="0.666016" width="100" height="100" rx="50" fill="#004687"/>
<path d="M72.609 71.0377H70.678V43.6276L50.6689 33.3008L30.6529 43.6345V71.0377H28.7233C28.4394 71.0377 28.209 71.2681 28.209 71.552C28.209 71.8359 28.4394 72.0663 28.7233 72.0663H72.609C72.8929 72.0663 73.1233 71.8359 73.1233 71.552C73.1233 71.2681 72.8929 71.0377 72.609 71.0377ZM65.6312 71.0377H63.3059C63.321 70.9808 63.3409 70.9259 63.3409 70.8642V65.1591C63.3409 64.7806 63.0337 64.4734 62.6552 64.4734H60.3169V65.9614C60.3169 66.2494 60.0837 66.4756 59.8026 66.4756C59.5146 66.4756 59.2883 66.2494 59.2883 65.9614V64.4734H56.95C56.5715 64.4734 56.2643 64.7806 56.2643 65.1591V70.8642C56.2643 70.9259 56.2842 70.9808 56.2993 71.0377H55.2008C55.2158 70.9808 55.2357 70.9259 55.2357 70.8642V65.1591C55.2357 64.7806 54.9285 64.4734 54.55 64.4734H52.2117V65.9614C52.2117 66.2494 51.9786 66.4756 51.6974 66.4756C51.4094 66.4756 51.1832 66.2494 51.1832 65.9614V64.4734H48.838C48.4595 64.4734 48.1523 64.7806 48.1523 65.1591V70.8642C48.1523 70.9259 48.1722 70.9808 48.1873 71.0377H47.0888C47.1038 70.9808 47.1237 70.9259 47.1237 70.8642V65.1591C47.1237 64.7806 46.8165 64.4734 46.438 64.4734H44.0997V65.9614C44.0997 66.2494 43.8734 66.4756 43.5854 66.4756C43.3043 66.4756 43.0712 66.2494 43.0712 65.9614V64.4734H40.7329C40.3544 64.4734 40.0472 64.7806 40.0472 65.1591V70.8642C40.0472 70.9259 40.067 70.9808 40.0821 71.0377H35.6997V43.9842H65.6312V71.0377Z" fill="#FBAE17"/>
<path d="M29.1231 43.2604L50.54 32.2067C50.6189 32.1662 50.7128 32.1662 50.7917 32.2067L72.2086 43.2604C72.391 43.3543 72.6084 43.222 72.6084 43.0169V39.3875C72.6084 39.2846 72.5508 39.1907 72.4596 39.144L50.791 27.96C50.7121 27.9196 50.6182 27.9196 50.5393 27.96L28.8708 39.144C28.7803 39.1907 28.7227 39.2846 28.7227 39.3868V43.0163C28.7227 43.222 28.9407 43.355 29.1231 43.2604Z" fill="#FBAE17"/>
<path d="M36.7285 45.0156H64.6028V47.2853H36.7285V45.0156Z" fill="#FBAE17"/>
<path d="M36.7285 48.3125H64.6028V50.5891H36.7285V48.3125Z" fill="#FBAE17"/>
<path d="M36.7285 51.6172H64.6028V53.8938H36.7285V51.6172Z" fill="#FBAE17"/>
<path d="M46.4377 56.3711H44.0994V57.8591C44.0994 58.1471 43.8732 58.3734 43.5852 58.3734C43.304 58.3734 43.0709 58.1471 43.0709 57.8591V56.3711H40.7326C40.3541 56.3711 40.0469 56.6783 40.0469 57.0568V62.762C40.0469 63.1405 40.3541 63.4477 40.7326 63.4477H46.4377C46.8162 63.4477 47.1234 63.1405 47.1234 62.762V57.0568C47.1234 56.6783 46.8169 56.3711 46.4377 56.3711Z" fill="#FBAE17"/>
<path d="M54.5501 56.3711H52.2118V57.8591C52.2118 58.1471 51.9786 58.3734 51.6975 58.3734C51.4095 58.3734 51.1832 58.1471 51.1832 57.8591V56.3711H48.8381C48.4595 56.3711 48.1523 56.6783 48.1523 57.0568V62.762C48.1523 63.1405 48.4595 63.4477 48.8381 63.4477H54.5501C54.9286 63.4477 55.2358 63.1405 55.2358 62.762V57.0568C55.2358 56.6783 54.9293 56.3711 54.5501 56.3711Z" fill="#FBAE17"/>
</svg>
