<svg width="100" height="100" viewBox="0 0 100 100" fill="none" xmlns="http://www.w3.org/2000/svg">
<rect width="100" height="100" rx="50" fill="#004687"/>
<path d="M57.6175 70.4092C57.4711 70.557 57.2969 70.6742 57.105 70.7543C56.913 70.8343 56.7071 70.8755 56.4991 70.8755C56.2911 70.8755 56.0852 70.8343 55.8932 70.7543C55.7013 70.6742 55.5271 70.557 55.3807 70.4092L53.2543 68.2636C52.9562 67.961 52.7891 67.5532 52.7891 67.1284C52.7891 66.7036 52.9562 66.2959 53.2543 65.9932C53.4003 65.8456 53.5741 65.7285 53.7656 65.6485C53.9572 65.5685 54.1627 65.5273 54.3703 65.5273C54.5779 65.5273 54.7834 65.5685 54.975 65.6485C55.1665 65.7285 55.3403 65.8456 55.4863 65.9932L57.6175 68.134C57.9148 68.4381 58.0812 68.8464 58.0812 69.2716C58.0812 69.6969 57.9148 70.1052 57.6175 70.4092Z" fill="#FBAE17"/>
<path d="M63.1945 69.1769C62.896 69.468 62.4955 69.631 62.0785 69.631C61.6616 69.631 61.2611 69.468 60.9625 69.1769L56.6425 64.8569C56.3447 64.5551 56.1777 64.1481 56.1777 63.7241C56.1777 63.3001 56.3447 62.8931 56.6425 62.5913C56.7889 62.4435 56.9631 62.3263 57.1551 62.2462C57.347 62.1662 57.553 62.125 57.7609 62.125C57.9689 62.125 58.1748 62.1662 58.3668 62.2462C58.5588 62.3263 58.733 62.4435 58.8793 62.5913L63.1993 66.9113C63.4977 67.2131 63.6646 67.6207 63.6637 68.0451C63.6628 68.4695 63.4942 68.8763 63.1945 69.1769Z" fill="#FBAE17"/>
<path d="M65.724 64.8749C65.5787 65.0251 65.405 65.1449 65.213 65.2274C65.021 65.3098 64.8145 65.3531 64.6056 65.3549C64.3964 65.3545 64.1895 65.3117 63.9973 65.2292C63.8051 65.1468 63.6316 65.0262 63.4872 64.8749L60.0504 61.4141C59.7551 61.1119 59.5898 60.7062 59.5898 60.2837C59.5898 59.8612 59.7551 59.4555 60.0504 59.1533C60.3489 58.8622 60.7494 58.6992 61.1664 58.6992C61.5834 58.6992 61.9838 58.8622 62.2824 59.1533L65.7192 62.6093C66.0165 62.9111 66.1835 63.3175 66.1844 63.7411C66.1853 64.1648 66.02 64.5719 65.724 64.8749Z" fill="#FBAE17"/>
<path d="M66.939 59.2559C66.6394 59.5448 66.2393 59.7062 65.823 59.7062C65.4068 59.7062 65.0067 59.5448 64.707 59.2559L63.4398 57.9887C63.1417 57.686 62.9746 57.2783 62.9746 56.8535C62.9746 56.4287 63.1417 56.0209 63.4398 55.7183C63.7348 55.4171 64.1367 55.2445 64.5582 55.2383C64.7664 55.2407 64.972 55.2844 65.1631 55.3668C65.3543 55.4492 65.5272 55.5686 65.6718 55.7183L66.9294 56.9855C67.2288 57.2868 67.3977 57.6939 67.3995 58.1187C67.4013 58.5435 67.2359 58.952 66.939 59.2559Z" fill="#FBAE17"/>
<path d="M73.4335 48.5621L70.5535 51.4421C70.3466 51.6433 70.0693 51.7558 69.7807 51.7558C69.4921 51.7558 69.2149 51.6433 69.0079 51.4421L56.4607 38.7941C56.2555 38.5835 56.1406 38.301 56.1406 38.0069C56.1406 37.7128 56.2555 37.4304 56.4607 37.2197L59.3407 34.3397C59.4403 34.2349 59.5601 34.1514 59.693 34.0943C59.8258 34.0372 59.9689 34.0078 60.1135 34.0078C60.2581 34.0078 60.4012 34.0372 60.5341 34.0943C60.6669 34.1514 60.7868 34.2349 60.8863 34.3397L73.4335 46.9877C73.5374 47.0908 73.6199 47.2134 73.6762 47.3485C73.7325 47.4837 73.7615 47.6286 73.7615 47.7749C73.7615 47.9213 73.7325 48.0662 73.6762 48.2013C73.6199 48.3364 73.5374 48.4591 73.4335 48.5621Z" fill="#FBAE17"/>
<path d="M43.5397 34.6608L30.9733 47.3184C30.7672 47.5193 30.4908 47.6317 30.2029 47.6317C29.9151 47.6317 29.6387 47.5193 29.4325 47.3184L26.5525 44.4384C26.4486 44.3353 26.3662 44.2127 26.3099 44.0776C26.2536 43.9425 26.2246 43.7976 26.2246 43.6512C26.2246 43.5048 26.2536 43.3599 26.3099 43.2248C26.3662 43.0897 26.4486 42.9671 26.5525 42.864L39.1285 30.216C39.2298 30.1141 39.3502 30.0333 39.4828 29.9781C39.6155 29.9229 39.7577 29.8945 39.9013 29.8945C40.045 29.8945 40.1872 29.9229 40.3198 29.9781C40.4525 30.0333 40.5729 30.1141 40.6741 30.216L43.5541 33.096C43.7546 33.3081 43.8651 33.5895 43.8624 33.8813C43.8597 34.1731 43.7441 34.4525 43.5397 34.6608Z" fill="#FBAE17"/>
<path d="M56.7873 46.4683C56.0007 47.0142 55.0469 47.2653 54.0935 47.1775C53.1401 47.0897 52.2482 46.6686 51.5745 45.9883L49.1745 43.5547C49.0966 43.4713 49.0009 43.4065 48.8946 43.3649C48.7882 43.3234 48.6739 43.3062 48.5601 43.3147C48.4509 43.3217 48.3445 43.3524 48.2484 43.4046C48.1522 43.4568 48.0686 43.5293 48.0033 43.6171C48.0033 43.6171 46.8129 45.1195 45.2001 45.2443C44.2401 45.3163 43.2801 44.8987 42.3201 43.9915C42.171 43.8525 41.9732 43.7777 41.7694 43.7831C41.5656 43.7885 41.3721 43.8737 41.2305 44.0203C41.0966 44.1714 41.028 44.3693 41.0397 44.5708C41.0514 44.7723 41.1424 44.961 41.2929 45.0955C42.5649 46.3147 43.9233 46.8715 45.3297 46.7707C46.1399 46.6931 46.9191 46.4196 47.6001 45.9739L39.4785 54.1675L37.8657 55.7899L33.9873 51.8875C33.4765 51.3707 33.0798 50.7526 32.8227 50.073C32.5656 49.3934 32.4538 48.6674 32.4945 47.9419L44.1825 36.1915H44.4417C45.1177 36.1867 45.7879 36.3171 46.4127 36.5751C47.0376 36.8331 47.6045 37.2135 48.0801 37.6939L56.7873 46.4683Z" fill="#FBAE17"/>
<path d="M65.7775 53.9638C65.2776 53.7472 64.7295 53.666 64.1883 53.7283C63.647 53.7905 63.1317 53.9941 62.694 54.3184C62.2563 54.6428 61.9116 55.0767 61.6946 55.5764C61.4776 56.0761 61.3958 56.6241 61.4575 57.1654C61.3567 57.1654 61.2511 57.1654 61.1455 57.1654C60.7417 57.1624 60.3412 57.2393 59.9672 57.3917C59.5932 57.5441 59.2531 57.769 58.9663 58.0534C58.6418 58.3819 58.3943 58.7783 58.2415 59.2141C58.0888 59.6499 58.0347 60.1142 58.0831 60.5734C57.9807 60.5734 57.8751 60.5734 57.7663 60.5734C57.331 60.5734 56.9007 60.6653 56.5033 60.8429C56.1059 61.0206 55.7504 61.28 55.46 61.6043C55.1697 61.9286 54.951 62.3105 54.8182 62.7251C54.6855 63.1396 54.6416 63.5775 54.6895 64.0102C54.5791 64.0102 54.4783 64.0102 54.3727 64.0102C53.9623 64.0093 53.5559 64.0899 53.1768 64.2472C52.7978 64.4046 52.4538 64.6357 52.1647 64.927C51.7159 65.3839 51.417 65.9669 51.3081 66.5982C51.1992 67.2294 51.2854 67.8788 51.5551 68.4598C51.3906 68.5207 51.2169 68.5532 51.0415 68.5558C50.8318 68.5546 50.6244 68.5116 50.4315 68.4292C50.2386 68.3467 50.0641 68.2266 49.9183 68.0758C49.6536 67.8042 49.4927 67.4483 49.4638 67.0701C49.4348 66.692 49.5396 66.3157 49.7599 66.007L52.9663 62.7766C53.0379 62.706 53.0947 62.622 53.1335 62.5293C53.1723 62.4366 53.1922 62.3371 53.1922 62.2366C53.1922 62.1361 53.1723 62.0366 53.1335 61.9439C53.0947 61.8512 53.0379 61.7671 52.9663 61.6966C52.8224 61.553 52.6273 61.4723 52.4239 61.4723C52.2206 61.4723 52.0255 61.553 51.8815 61.6966L48.8575 64.7446C48.7991 64.8084 48.7446 64.8758 48.6943 64.9462L46.8031 66.8662C46.6577 67.0162 46.484 67.1359 46.292 67.2183C46.1001 67.3006 45.8936 67.3441 45.6847 67.3462C45.4765 67.3446 45.2706 67.3013 45.0794 67.2188C44.8881 67.1364 44.7153 67.0165 44.5711 66.8662C44.2947 66.5971 44.1245 66.2373 44.0919 65.8529C44.0593 65.4685 44.1664 65.0852 44.3935 64.7734L50.2927 58.8214C50.3643 58.7508 50.4211 58.6668 50.4599 58.5741C50.4987 58.4814 50.5186 58.3819 50.5186 58.2814C50.5186 58.1809 50.4987 58.0814 50.4599 57.9887C50.4211 57.896 50.3643 57.8119 50.2927 57.7414C50.1488 57.5978 49.9537 57.5171 49.7503 57.5171C49.547 57.5171 49.3519 57.5978 49.2079 57.7414L43.4815 63.5014C43.4191 63.5638 43.3759 63.6358 43.3231 63.6982L42.3103 64.7158C42.0099 65.0118 41.6042 65.1763 41.1825 65.1731C40.7607 65.17 40.3575 64.9994 40.0615 64.699C39.7656 64.3986 39.601 63.9928 39.6042 63.5711C39.6073 63.1494 39.7779 62.7462 40.0783 62.4502L40.9279 61.5574C41.0294 61.4789 41.1256 61.394 41.2159 61.303L46.6783 55.7974C46.7493 55.7265 46.8056 55.6423 46.844 55.5497C46.8824 55.457 46.9022 55.3577 46.9022 55.2574C46.9022 55.1571 46.8824 55.0578 46.844 54.9651C46.8056 54.8724 46.7493 54.7883 46.6783 54.7174C46.6074 54.6457 46.5229 54.5888 46.4298 54.5499C46.3367 54.5111 46.2368 54.4911 46.1359 54.4911C46.0351 54.4911 45.9352 54.5111 45.8421 54.5499C45.749 54.5888 45.6645 54.6457 45.5935 54.7174L39.9439 60.3718C39.6204 60.5886 39.2286 60.679 38.8428 60.6259C38.457 60.5728 38.1042 60.3798 37.8513 60.0837C37.5984 59.7876 37.4631 59.4089 37.471 59.0196C37.479 58.6302 37.6296 58.2574 37.8943 57.9718L44.3023 51.5014C44.3155 51.4817 44.3268 51.4608 44.3359 51.439L49.5871 46.159L50.4799 47.0518C51.0006 47.5795 51.6209 47.9985 52.3048 48.2845C52.9887 48.5704 53.7226 48.7177 54.4639 48.7177C55.2052 48.7177 55.9392 48.5704 56.6231 48.2845C57.307 47.9985 57.9273 47.5795 58.4479 47.0518C58.5189 46.9809 58.5752 46.8967 58.6136 46.8041C58.652 46.7114 58.6718 46.6121 58.6718 46.5118C58.6718 46.4115 58.652 46.3122 58.6136 46.2195C58.5752 46.1268 58.5189 46.0427 58.4479 45.9718L54.3775 41.8726C54.7464 41.744 55.1341 41.6775 55.5247 41.6758C56.004 41.6747 56.4786 41.7698 56.9205 41.9553C57.3624 42.1408 57.7626 42.413 58.0975 42.7558L65.0767 49.7686C65.6102 50.3113 65.9636 51.0051 66.089 51.7556C66.2144 52.5062 66.1056 53.2772 65.7775 53.9638Z" fill="#FBAE17"/>
</svg>
