<svg width="32" height="32" viewBox="0 0 32 32" fill="none" xmlns="http://www.w3.org/2000/svg">
<path d="M26.3077 14.7613L19.4487 11.5633C19.3717 11.5273 19.3367 11.4673 19.3197 11.4233C19.3037 11.3793 19.2927 11.3103 19.3287 11.2333L22.1377 5.20833C22.5917 4.23333 22.3257 3.13733 21.4757 2.47933C20.6227 1.82133 19.4967 1.83933 18.6657 2.52533L11.4857 8.46333L5.2427 13.4443C4.6307 13.9333 4.3197 14.6903 4.4127 15.4683C4.5057 16.2463 4.9847 16.9093 5.6947 17.2403L12.5537 20.4383C12.6307 20.4743 12.6657 20.5343 12.6827 20.5783C12.6987 20.6223 12.7097 20.6913 12.6737 20.7693L9.8647 26.7933C9.4107 27.7683 9.6767 28.8643 10.5267 29.5223C10.9427 29.8433 11.4237 30.0033 11.9047 30.0033C12.4087 30.0033 12.9117 29.8273 13.3367 29.4763L20.5167 23.5383L26.7597 18.5573C27.3717 18.0683 27.6827 17.3113 27.5897 16.5333C27.4967 15.7553 27.0177 15.0923 26.3077 14.7613Z" fill="#004687"/>
</svg>
