<svg width="32" height="32" viewBox="0 0 32 32" fill="none" xmlns="http://www.w3.org/2000/svg">
<path d="M27.1991 7.99948C20.55 7.99681 17.581 3.94135 16.7719 2.57548C16.6098 2.30135 16.318 2.13281 15.9991 2.13281C15.6802 2.13281 15.389 2.30135 15.2263 2.57548C14.4172 3.94135 11.4482 7.99681 4.79909 7.99948C4.21029 7.99948 3.73242 8.47735 3.73242 9.06615V14.3995C3.73242 24.584 12.5724 29.1435 14.9063 30.1691C15.2524 30.3211 15.6215 30.3995 15.9991 30.3995C16.3767 30.3995 16.7458 30.3211 17.0919 30.1691C19.4258 29.1435 28.2658 24.584 28.2658 14.3995V9.06615C28.2658 8.47735 27.7879 7.99948 27.1991 7.99948ZM22.8407 17.9195C21.2546 20.4347 19.1991 21.8661 15.9991 21.8661C12.7991 21.8661 10.7495 20.4459 9.16442 17.9413C9.03322 17.7339 9.03322 17.4651 9.16442 17.2581C10.7495 14.7531 12.7991 13.3328 15.9991 13.3328C19.1991 13.3328 21.2546 14.7643 22.8407 17.2795C22.9634 17.4736 22.9634 17.7253 22.8407 17.9195Z" fill="#004687"/>
<path d="M15.9986 19.7335C17.1768 19.7335 18.1319 18.7783 18.1319 17.6001C18.1319 16.4219 17.1768 15.4668 15.9986 15.4668C14.8204 15.4668 13.8652 16.4219 13.8652 17.6001C13.8652 18.7783 14.8204 19.7335 15.9986 19.7335Z" fill="#004687"/>
</svg>
