<svg width="100" height="100" viewBox="0 0 100 100" fill="none" xmlns="http://www.w3.org/2000/svg">
<rect width="100" height="100" rx="50" fill="#004687"/>
<g clip-path="url(#clip0_2053_5073)">
<path d="M50 36.7812C42.5044 36.7812 36.4062 42.8794 36.4062 50.375C36.4062 57.8706 42.5044 63.9688 50 63.9688C57.4956 63.9688 63.5938 57.8706 63.5938 50.375C63.5938 42.8794 57.4956 36.7812 50 36.7812ZM59.5104 51.0417H56.6979V48.4366L50 55.1346L47 52.1346L41.9943 57.1403L40.0056 55.1516L47 48.1572L50 51.1572L54.7092 46.448H52.1041V43.6355H59.5104V51.0417Z" fill="#FBAE17"/>
<path d="M74 53.375V47.375H70.7858C70.5468 45.7047 70.1119 44.0978 69.504 42.5785L72.2847 40.9731L69.2847 35.7769L66.5005 37.3843C65.4729 36.0808 64.2942 34.9021 62.9907 33.8745L64.5981 31.0903L59.4019 28.0903L57.7965 30.871C56.2772 30.2631 54.6703 29.8282 53 29.5892V26.375H47V29.5892C45.3297 29.8282 43.7228 30.2631 42.2035 30.871L40.5981 28.0903L35.4019 31.0903L37.0093 33.8745C35.7058 34.9021 34.5271 36.0808 33.4995 37.3843L30.7153 35.7769L27.7153 40.9731L30.496 42.5785C29.8881 44.0978 29.4532 45.7047 29.2142 47.375H26V53.375H29.2142C29.4532 55.0453 29.8881 56.6522 30.496 58.1715L27.7153 59.7769L30.7153 64.9731L33.4995 63.3657C34.5271 64.6692 35.7058 65.8479 37.0093 66.8755L35.4019 69.6597L40.5981 72.6597L42.2035 69.879C43.7228 70.4869 45.3297 70.9218 47 71.1608V74.375H53V71.1608C54.6703 70.9218 56.2772 70.4869 57.7965 69.879L59.4019 72.6597L64.5981 69.6597L62.9907 66.8755C64.2942 65.8479 65.4729 64.6692 66.5005 63.3657L69.2847 64.9731L72.2847 59.7769L69.504 58.1715C70.1119 56.6522 70.5468 55.0453 70.7858 53.375H74ZM50 66.7812C40.9536 66.7812 33.5938 59.4214 33.5938 50.375C33.5938 41.3286 40.9536 33.9688 50 33.9688C59.0464 33.9688 66.4062 41.3286 66.4062 50.375C66.4062 59.4214 59.0464 66.7812 50 66.7812Z" fill="#FBAE17"/>
</g>
<defs>
<clipPath id="clip0_2053_5073">
<rect width="48" height="48" fill="white" transform="translate(26 26.375)"/>
</clipPath>
</defs>
</svg>
