<svg width="32" height="32" viewBox="0 0 32 32" fill="none" xmlns="http://www.w3.org/2000/svg">
<g clip-path="url(#clip0_2062_5726)">
<path d="M7.95207 13.0485C11.4301 13.0485 14.2597 10.219 14.2597 6.74099C13.9426 -1.61529 1.9604 -1.6131 1.64453 6.74106C1.64459 10.2189 4.47412 13.0485 7.95207 13.0485Z" fill="#004687"/>
<path d="M31.8724 11.7724L25.3456 0.467289C24.9974 -0.153253 24.07 -0.153065 23.7219 0.467289L17.195 11.7724C16.8317 12.3841 17.2956 13.1873 18.0069 13.1786H31.0605C31.772 13.1873 32.2356 12.3839 31.8724 11.7724Z" fill="#004687"/>
<path d="M30.0415 17.5859H18.9961C18.4783 17.5859 18.0586 18.0057 18.0586 18.5234V29.5689C18.0586 30.0866 18.4783 30.5063 18.9961 30.5063H30.0415C30.5592 30.5063 30.979 30.0866 30.979 29.5689V18.5234C30.979 18.0057 30.5592 17.5859 30.0415 17.5859Z" fill="#004687"/>
<path d="M8.61417 16.3703C8.24812 16.0042 7.65451 16.0042 7.2884 16.3703L0.274569 23.3842C-0.0914813 23.7502 -0.0915438 24.3437 0.274506 24.7099L7.2889 31.7238C7.65495 32.0899 8.24855 32.0899 8.61467 31.7238L15.6286 24.7099C15.9946 24.3439 15.9947 23.7503 15.6286 23.3842L8.61417 16.3703Z" fill="#004687"/>
</g>
<defs>
<clipPath id="clip0_2062_5726">
<rect width="32" height="32" fill="white"/>
</clipPath>
</defs>
</svg>
