<svg width="100" height="100" viewBox="0 0 100 100" fill="none" xmlns="http://www.w3.org/2000/svg">
<rect width="100" height="100" rx="50" fill="#004687"/>
<g clip-path="url(#clip0_2059_5607)">
<path d="M27.3406 53.3443L30.4729 53.8577C30.9678 56.2562 31.9148 58.5386 33.2635 60.5828L31.4085 63.1717C31.0237 63.6956 31.0303 64.4106 31.4248 64.9274C31.8926 65.4991 32.3896 66.0463 32.9137 66.5667C33.4425 67.0964 33.9876 67.5845 34.549 68.0564C35.0661 68.4518 35.7821 68.4584 36.3064 68.0727L38.8936 66.2169C40.9359 67.5663 43.2166 68.514 45.6138 69.0091L46.1264 72.1439C46.2241 72.7852 46.7357 73.2836 47.3793 73.3643C47.8251 73.4148 48.2743 73.4456 48.7332 73.4685C48.956 73.4793 49.1736 73.3988 49.3358 73.2456C49.4979 73.0924 49.5906 72.8796 49.5923 72.6565V66.1364C49.5899 65.6969 49.2408 65.3377 48.8015 65.3228C40.5798 64.8966 34.1321 58.106 34.1321 49.8733C34.1321 41.6406 40.5798 34.85 48.8015 34.4238C49.2408 34.4089 49.5899 34.0497 49.5923 33.6101V27.0958C49.5912 26.8728 49.4991 26.6599 49.3374 26.5062C49.1757 26.3526 48.9583 26.2717 48.7355 26.2821C48.2783 26.3011 47.8263 26.3332 47.3792 26.3781C46.7355 26.4658 46.2259 26.9662 46.1264 27.6083L45.6138 30.743C43.2166 31.2388 40.936 32.1867 38.8936 33.5361L36.3063 31.6795C35.782 31.2937 35.066 31.3003 34.549 31.6958C33.9788 32.1641 33.433 32.6613 32.9136 33.1854C32.3855 33.7021 31.8884 34.2495 31.4248 34.8248C31.0285 35.3422 31.0219 36.0591 31.4085 36.5837L33.2634 39.1726C31.9151 41.2161 30.968 43.4976 30.4728 45.8952L27.3405 46.4078C26.6991 46.5058 26.2007 47.0177 26.1201 47.6616C25.96 49.1216 25.96 50.5949 26.1201 52.0549C26.1925 52.7094 26.691 53.2362 27.3406 53.3443Z" fill="white"/>
<path d="M48.8151 37.696C42.3875 38.1031 37.3828 43.4349 37.3828 49.8753C37.3828 56.3157 42.3876 61.6475 48.8151 62.0547C49.0196 62.0632 49.2186 61.9873 49.3656 61.8449C49.5126 61.7025 49.5948 61.5059 49.5929 61.3013V38.4493C49.5948 38.2446 49.5127 38.0482 49.3656 37.9057C49.2186 37.7633 49.0196 37.6875 48.8151 37.696Z" fill="white"/>
<path d="M55.2866 38.4851H51.2188V40.1123H55.2866C56.633 40.1083 57.7234 39.0179 57.7274 37.6715V32.6403C58.8482 32.2441 59.5204 31.0981 59.3194 29.9264C59.1184 28.7548 58.1026 27.8984 56.9138 27.8984C55.7251 27.8984 54.7092 28.7548 54.5082 29.9264C54.3071 31.0981 54.9794 32.2441 56.1002 32.6403V37.6715C56.1002 38.1209 55.7359 38.4851 55.2866 38.4851Z" fill="white"/>
<path d="M51.2188 43.3655H59.3546C59.804 43.3655 60.1682 43.0013 60.1682 42.5519C60.1682 42.1025 59.804 41.7383 59.3546 41.7383H51.2188V43.3655Z" fill="white"/>
<path d="M51.2188 61.2678H55.2866C55.736 61.2678 56.1003 61.632 56.1003 62.0814V67.1126C54.9795 67.5088 54.3072 68.6548 54.5082 69.8265C54.7093 70.9981 55.7251 71.8545 56.9139 71.8545C58.1026 71.8545 59.1185 70.9981 59.3195 69.8265C59.5205 68.6548 58.8482 67.5088 57.7275 67.1126V62.0814C57.7235 60.735 56.6331 59.6446 55.2867 59.6406H51.2188V61.2678H51.2188Z" fill="white"/>
<path d="M63.4225 53.1289H51.2188V54.756H63.4225C63.8719 54.756 64.2361 55.1203 64.2361 55.5697V59.7873C63.1153 60.1835 62.4431 61.3296 62.6441 62.5012C62.8451 63.6728 63.8609 64.5292 65.0497 64.5292C66.2384 64.5292 67.2543 63.6728 67.4554 62.5012C67.6564 61.3296 66.9841 60.1835 65.8633 59.7873V55.5697C65.8592 54.2233 64.7689 53.1329 63.4225 53.1289Z" fill="white"/>
<path d="M71.5584 47.4336C70.5278 47.4378 69.6108 48.089 69.2673 49.0607H51.2188V50.6879H69.2673C69.683 51.855 70.9085 52.5244 72.1152 52.2434C73.322 51.9625 74.1257 50.8208 73.9832 49.59C73.8408 48.3593 72.7973 47.4314 71.5584 47.4336Z" fill="white"/>
<path d="M60.1682 57.1964C60.1682 56.7471 59.804 56.3828 59.3546 56.3828H51.2188V58.01H59.3546C59.804 58.01 60.1682 57.6458 60.1682 57.1964Z" fill="white"/>
<path d="M65.8633 44.1822V39.9646C66.9841 39.5683 67.6564 38.4223 67.4554 37.2507C67.2543 36.079 66.2385 35.2227 65.0497 35.2227C63.861 35.2227 62.8451 36.079 62.6441 37.2507C62.4431 38.4223 63.1153 39.5683 64.2361 39.9646V44.1822C64.2361 44.6316 63.8719 44.9958 63.4225 44.9958H51.2188V46.623H63.4225C64.7689 46.6189 65.8593 45.5285 65.8633 44.1822Z" fill="white"/>
</g>
<defs>
<clipPath id="clip0_2059_5607">
<rect width="48" height="48" fill="white" transform="translate(26 25.875)"/>
</clipPath>
</defs>
</svg>
