<svg width="100" height="100" viewBox="0 0 100 100" fill="none" xmlns="http://www.w3.org/2000/svg">
<rect width="100" height="100" rx="50" fill="#004687"/>
<path d="M45.5 30.5H51.5V32.75H45.5V30.5Z" fill="white"/>
<path d="M57.4956 49.7499C55.6214 49.7499 55.6214 47.75 53.7471 47.75C51.8729 47.75 51.8728 49.7499 49.9986 49.7499C48.1243 49.7499 48.1238 47.75 46.249 47.75C44.3742 47.75 44.3753 49.7499 42.5016 49.7499C40.6262 49.7499 40.6262 47.75 38.7508 47.75C36.8741 47.75 36.8741 49.7499 34.9974 49.7499C33.1208 49.7499 33.1208 47.75 31.2441 47.75V71H60.4941V47.8845C59.3282 48.3286 59.0778 49.7499 57.4956 49.7499Z" fill="white"/>
<path d="M64.9974 49.7499C63.4127 49.7499 63.1623 48.328 61.9941 47.8843V71H68.7507V47.75C66.874 47.75 66.874 49.7499 64.9974 49.7499Z" fill="white"/>
<path d="M42.5007 48.2499C42.7439 48.2499 42.8237 48.211 43.2793 47.7243C43.6269 47.2662 44.0757 46.8947 44.5908 46.6389C45.1058 46.3832 45.6731 46.2501 46.2481 46.25C46.8232 46.25 47.3904 46.383 47.9055 46.6387C48.4206 46.8944 48.8695 47.2659 49.2171 47.724C49.6696 48.207 49.7532 48.249 49.9925 48.2494C49.7273 46.7033 49.8061 45.1177 50.2234 43.6056C50.7267 41.5363 51.8823 39.6837 53.5195 38.3218C52.7693 37.4853 51.8151 36.8576 50.75 36.5V34.25H46.25V36.5C44.9396 36.9368 43.7999 37.7748 42.9922 38.8954C42.1846 40.0159 41.75 41.3622 41.75 42.7435V47.7553C42.1567 48.1871 42.2525 48.2499 42.5007 48.2499Z" fill="white"/>
<path d="M64.2149 47.7236C64.6529 48.1909 64.7408 48.2499 64.9972 48.2499C65.2535 48.2499 65.3422 48.1909 65.7808 47.7233C65.9341 47.5598 66.1128 47.3735 66.3201 47.1892C66.9726 43.8474 65.8093 40.7936 63.562 40.1917C62.7539 39.9945 61.9016 40.0999 61.1659 40.4879C61.2881 39.724 61.6594 39.022 62.222 38.491C62.5061 38.2759 62.833 38.124 63.1806 38.0457C63.5283 37.9673 63.8887 37.9644 64.2376 38.0369C64.3361 38.052 64.4365 38.0474 64.5331 38.0233C64.6297 37.9992 64.7205 37.9561 64.8003 37.8965C64.8801 37.837 64.9472 37.7621 64.9977 37.6763C65.0483 37.5905 65.0812 37.4955 65.0947 37.3969C65.1081 37.2982 65.1018 37.1979 65.076 37.1017C65.0503 37.0055 65.0056 36.9154 64.9447 36.8367C64.8838 36.7579 64.8078 36.6921 64.7212 36.643C64.6345 36.594 64.539 36.5626 64.4401 36.5509C63.8869 36.4482 63.3181 36.4646 62.7717 36.5991C62.2254 36.7336 61.714 36.9831 61.2716 37.3309C60.458 38.0619 59.909 39.0415 59.7101 40.117C59.2665 39.4018 58.5745 38.8755 57.7667 38.6392C55.3661 37.9959 52.6379 40.3936 51.673 43.9942C51.3925 45.0225 51.2869 46.0907 51.3607 47.154C52.0125 46.5606 52.8657 46.2374 53.7472 46.25C54.321 46.2569 54.8858 46.3931 55.3997 46.6483C55.9137 46.9036 56.3634 47.2714 56.7157 47.7244C57.172 48.211 57.2518 48.2499 57.4957 48.2499C57.7395 48.2499 57.8194 48.211 58.2757 47.7244C58.6234 47.2662 59.0724 46.8948 59.5875 46.639C60.1026 46.3832 60.6699 46.2501 61.2451 46.25C61.8202 46.25 62.3876 46.383 62.9028 46.6386C63.418 46.8942 63.8671 47.2656 64.2149 47.7236Z" fill="white"/>
<path d="M34.2148 47.7235C34.6528 48.1908 34.7407 48.2498 34.9971 48.2498C35.2534 48.2498 35.3421 48.1908 35.7808 47.7232C36.1334 47.2704 36.5835 46.9027 37.0977 46.6477C37.6118 46.3926 38.1769 46.2567 38.7508 46.2499C39.2679 46.2437 39.7801 46.3516 40.2508 46.566V42.7434C40.2553 41.4253 40.5835 40.1284 41.2066 38.9667C38.7266 32.6285 35.6404 28.4745 33.4783 29.0538C30.798 29.772 30.5158 37.4904 32.7513 46.5692C33.3109 46.853 33.8084 47.2454 34.2148 47.7235ZM38.3707 39.1585C38.5591 39.2223 38.7145 39.3582 38.8026 39.5365C38.8908 39.7148 38.9046 39.9208 38.8408 40.1092L37.1072 45.2321C37.0765 45.3264 37.0274 45.4137 36.9627 45.4889C36.898 45.5641 36.819 45.6257 36.7304 45.6702C36.6417 45.7147 36.5451 45.7411 36.4461 45.748C36.3472 45.7549 36.2478 45.7421 36.1539 45.7103C36.0599 45.6785 35.9732 45.6284 35.8987 45.5629C35.8242 45.4974 35.7635 45.4177 35.72 45.3286C35.6765 45.2394 35.6511 45.1425 35.6454 45.0435C35.6396 44.9444 35.6535 44.8453 35.6863 44.7516L37.42 39.6287C37.4838 39.4404 37.6198 39.2851 37.798 39.1969C37.9763 39.1087 38.1822 39.095 38.3707 39.1585ZM33.9395 38.9818L35.672 33.8589C35.7374 33.6725 35.8735 33.5195 36.051 33.4329C36.2285 33.3464 36.433 33.3333 36.62 33.3966C36.8071 33.4598 36.9616 33.5943 37.0502 33.7708C37.1387 33.9473 37.154 34.1516 37.0929 34.3393L35.3608 39.4624C35.3301 39.5567 35.2809 39.644 35.2162 39.7192C35.1515 39.7944 35.0726 39.8561 34.9839 39.9005C34.8952 39.945 34.7986 39.9715 34.6997 39.9783C34.6007 39.9852 34.5014 39.9724 34.4074 39.9406C34.3134 39.9089 34.2267 39.8588 34.1522 39.7932C34.0778 39.7277 34.017 39.6481 33.9735 39.5589C33.9301 39.4697 33.9047 39.3728 33.8989 39.2738C33.8931 39.1748 33.9067 39.0754 33.9395 38.9818Z" fill="white"/>
</svg>
