<svg width="100" height="100" viewBox="0 0 100 100" fill="none" xmlns="http://www.w3.org/2000/svg">
<rect width="100" height="100" rx="50" fill="#004687"/>
<g clip-path="url(#clip0_2053_2036)">
<path d="M72.2716 66.859L66.7669 55.0547C63.7275 59.4803 58.9818 62.6317 53.4883 63.5873L58.0963 73.4687C58.6854 74.7331 60.5087 74.6487 60.9831 73.343L63.345 66.8551L63.8317 66.6281L70.3197 68.99C71.6216 69.4677 72.8599 68.1185 72.2716 66.859Z" fill="#FBAE17"/>
<path d="M49.9995 26.375C40.5134 26.375 32.7949 34.093 32.7949 43.5796C32.7949 53.0663 40.5135 60.7842 49.9995 60.7842C59.4857 60.7842 67.2042 53.0663 67.2042 43.5796C67.2042 34.093 59.4858 26.375 49.9995 26.375ZM58.3709 42.3155L55.3201 45.2894L56.0411 49.4898C56.2615 50.7722 54.9103 51.7357 53.7713 51.1384L49.9996 49.1558L46.228 51.1383C45.0825 51.7398 43.739 50.765 43.9582 49.4897L44.6791 45.2893L41.6284 42.3154C40.7012 41.4115 41.2158 39.8336 42.4951 39.6477L46.7117 39.0352L48.5976 35.2146C49.1683 34.0543 50.8306 34.0533 51.402 35.2146L53.2878 39.0352L57.5044 39.6477C58.7835 39.8335 59.298 41.4115 58.3709 42.3155Z" fill="#FBAE17"/>
<path d="M33.2336 55.0547L27.729 66.859C27.1379 68.1244 28.3874 69.4662 29.6809 68.9897L36.1688 66.6278L36.6556 66.8548L39.0174 73.3428C39.4909 74.6458 41.3139 74.7356 41.9043 73.4686L46.5123 63.5873C41.0188 62.6318 36.2732 59.4804 33.2336 55.0547Z" fill="#FBAE17"/>
</g>
<defs>
<clipPath id="clip0_2053_2036">
<rect width="48" height="48" fill="white" transform="translate(26 26.375)"/>
</clipPath>
</defs>
</svg>
