<svg width="40" height="40" viewBox="0 0 40 40" fill="none" xmlns="http://www.w3.org/2000/svg">
<path d="M28.1425 26.73L24.8994 23.4869C25.8823 22.2002 26.4214 20.6395 26.4216 18.9927C26.4216 17.0081 25.6486 15.1421 24.2451 13.7388C22.8417 12.3354 20.976 11.5625 18.9911 11.5625C17.0065 11.5625 15.1406 12.3354 13.7372 13.7388C10.8403 16.636 10.8403 21.3499 13.7372 24.2466C15.1406 25.6501 17.0065 26.4231 18.9911 26.4231C20.638 26.4229 22.1987 25.8838 23.4854 24.9009L26.7285 28.144C26.9235 28.3394 27.1796 28.437 27.4355 28.437C27.6913 28.437 27.9474 28.3394 28.1425 28.144C28.5331 27.7537 28.5331 27.1204 28.1425 26.73ZM15.1513 22.8325C13.0341 20.7153 13.0344 17.2703 15.1513 15.1528C16.1769 14.1274 17.5407 13.5625 18.9911 13.5625C20.4418 13.5625 21.8054 14.1274 22.831 15.1528C23.8566 16.1785 24.4216 17.5422 24.4216 18.9927C24.4216 20.4434 23.8566 21.8069 22.831 22.8325C21.8054 23.8582 20.4418 24.4231 18.9911 24.4231C17.5407 24.4231 16.1769 23.8582 15.1513 22.8325Z" fill="black"/>
</svg>
