<svg width="45" height="45" viewBox="0 0 45 45" fill="none" xmlns="http://www.w3.org/2000/svg">
<path d="M44.4 43.108H42.469V15.698L22.4599 5.37109L2.44389 15.7048V43.108H0.514286C0.2304 43.108 0 43.3384 0 43.6223C0 43.9062 0.2304 44.1366 0.514286 44.1366H44.4C44.6839 44.1366 44.9143 43.9062 44.9143 43.6223C44.9143 43.3384 44.6839 43.108 44.4 43.108ZM37.4222 43.108H35.0969C35.112 43.0511 35.1319 42.9962 35.1319 42.9345V37.2294C35.1319 36.8509 34.8247 36.5437 34.4462 36.5437H32.1079V38.0317C32.1079 38.3197 31.8747 38.5459 31.5936 38.5459C31.3056 38.5459 31.0793 38.3197 31.0793 38.0317V36.5437H28.741C28.3625 36.5437 28.0553 36.8509 28.0553 37.2294V42.9345C28.0553 42.9962 28.0752 43.0511 28.0903 43.108H26.9918C27.0069 43.0511 27.0267 42.9962 27.0267 42.9345V37.2294C27.0267 36.8509 26.7195 36.5437 26.341 36.5437H24.0027V38.0317C24.0027 38.3197 23.7696 38.5459 23.4885 38.5459C23.2005 38.5459 22.9742 38.3197 22.9742 38.0317V36.5437H20.629C20.2505 36.5437 19.9433 36.8509 19.9433 37.2294V42.9345C19.9433 42.9962 19.9632 43.0511 19.9783 43.108H18.8798C18.8949 43.0511 18.9147 42.9962 18.9147 42.9345V37.2294C18.9147 36.8509 18.6075 36.5437 18.229 36.5437H15.8907V38.0317C15.8907 38.3197 15.6645 38.5459 15.3765 38.5459C15.0953 38.5459 14.8622 38.3197 14.8622 38.0317V36.5437H12.5239C12.1454 36.5437 11.8382 36.8509 11.8382 37.2294V42.9345C11.8382 42.9962 11.8581 43.0511 11.8731 43.108H7.49074V16.0545H37.4222V43.108Z" fill="#FBAE17"/>
<path d="M0.914129 15.3307L22.331 4.27697C22.4099 4.23651 22.5038 4.23651 22.5827 4.27697L43.9996 15.3307C44.182 15.4246 44.3994 15.2923 44.3994 15.0873V11.4578C44.3994 11.3549 44.3418 11.261 44.2506 11.2143L22.582 0.0303429C22.5032 -0.0101143 22.4092 -0.0101143 22.3304 0.0303429L0.661786 11.2143C0.571272 11.261 0.513672 11.3549 0.513672 11.4571V15.0866C0.513672 15.2923 0.731729 15.4253 0.914129 15.3307Z" fill="#FBAE17"/>
<path d="M8.51953 17.0859H36.3938V19.3557H8.51953V17.0859Z" fill="#FBAE17"/>
<path d="M8.51953 20.3828H36.3938V22.6594H8.51953V20.3828Z" fill="#FBAE17"/>
<path d="M8.51953 23.6875H36.3938V25.9641H8.51953V23.6875Z" fill="#FBAE17"/>
<path d="M18.2287 28.4414H15.8905V29.9294C15.8905 30.2174 15.6642 30.4437 15.3762 30.4437C15.095 30.4437 14.8619 30.2174 14.8619 29.9294V28.4414H12.5236C12.1451 28.4414 11.8379 28.7486 11.8379 29.1271V34.8323C11.8379 35.2108 12.1451 35.518 12.5236 35.518H18.2287C18.6073 35.518 18.9145 35.2108 18.9145 34.8323V29.1271C18.9145 28.7486 18.6079 28.4414 18.2287 28.4414Z" fill="#FBAE17"/>
<path d="M26.3411 28.4414H24.0028V29.9294C24.0028 30.2174 23.7696 30.4437 23.4885 30.4437C23.2005 30.4437 22.9742 30.2174 22.9742 29.9294V28.4414H20.6291C20.2506 28.4414 19.9434 28.7486 19.9434 29.1271V34.8323C19.9434 35.2108 20.2506 35.518 20.6291 35.518H26.3411C26.7196 35.518 27.0268 35.2108 27.0268 34.8323V29.1271C27.0268 28.7486 26.7203 28.4414 26.3411 28.4414Z" fill="#FBAE17"/>
</svg>
