<svg width="100" height="100" viewBox="0 0 100 100" fill="none" xmlns="http://www.w3.org/2000/svg">
<rect width="100" height="100" rx="50" fill="#004687"/>
<path d="M64.2258 51.1372L46.3748 68.9882C46.1668 69.1962 45.9389 69.3944 45.7012 69.5727C45.9984 69.6519 46.3055 69.6915 46.6225 69.6915H63.4036C65.4344 69.6915 67.0887 68.0372 67.0887 66.0064V50.9985C66.2962 50.949 65.4839 50.8499 64.6419 50.6914C64.5131 50.84 64.3744 50.9886 64.2258 51.1372Z" fill="#FBAE17"/>
<path d="M71.7742 39.4486C71.7445 39.4189 71.7147 39.3892 71.685 39.3595C70.0307 37.7051 67.6235 36.1796 64.8893 35.0404C64.394 34.8323 63.8888 34.6441 63.3836 34.4757V34.446C63.3539 32.2567 61.5906 30.4934 59.4013 30.4637L48.7026 30.3052C47.286 30.2854 45.9189 30.8401 44.9184 31.8407L27.0773 49.7016C25.6409 51.138 25.6409 53.4759 27.0773 54.9123L38.945 66.7799C40.3814 68.2163 42.7192 68.2163 44.1556 66.7799L62.0165 48.919C62.5317 48.4039 62.918 47.7996 63.1855 47.1359C64.9785 47.6411 66.722 47.9086 68.2575 47.8987C72.0615 47.8788 73.3195 46.2146 73.7356 45.224C74.1418 44.2333 74.4389 42.1629 71.7742 39.4486ZM49.6734 49.5827C49.2573 49.8106 48.8314 50.0582 48.4054 50.2761C47.9992 50.4842 47.8606 50.4346 47.712 49.9988C47.4049 49.127 46.9096 48.3841 46.226 47.7699C46.0477 47.6114 45.8595 47.4628 45.6317 47.3736C44.8193 47.0566 44.1061 47.5817 44.2052 48.4534C44.2547 48.8893 44.3934 49.3053 44.5618 49.7115C44.8491 50.4148 45.1562 51.1182 45.3642 51.8512C46.0378 54.1891 44.5519 56.4873 42.2041 56.7152C41.3522 56.7944 40.5399 56.6161 39.7969 56.1902C39.47 56.0019 39.2223 56.0218 38.9747 56.2991C38.727 56.5666 38.4496 56.8143 38.1921 57.0718C37.9642 57.2997 37.7166 57.3096 37.4887 57.0817C37.2015 56.8143 36.9241 56.527 36.6467 56.2496C36.409 56.0019 36.4288 55.7444 36.6665 55.5066C36.8547 55.3184 37.043 55.1203 37.2312 54.9321C37.6472 54.5061 37.6472 54.4764 37.3104 54.0108C36.8746 53.4164 36.4882 52.7923 36.2505 52.089C36.0622 51.5441 36.1118 51.4055 36.6071 51.1281C36.9736 50.92 37.3401 50.712 37.7166 50.5139C38.1525 50.286 38.2812 50.3356 38.4298 50.8012C38.6775 51.5937 39.0836 52.297 39.5889 52.9508C39.9158 53.3768 40.3219 53.6938 40.8172 53.8919C41.7484 54.2584 42.6003 53.6046 42.5013 52.614C42.4716 52.2772 42.3725 51.9503 42.2437 51.6333C41.9267 50.821 41.5206 50.0384 41.3125 49.1766C40.9658 47.7897 41.1243 46.5217 42.2437 45.5311C43.5117 44.4117 44.9283 44.3423 46.4242 45.0358C47.0383 45.323 47.0383 45.3329 47.5138 44.8574C47.6723 44.6989 47.8308 44.5404 47.9992 44.3819C48.3658 44.0352 48.4846 44.0352 48.8512 44.3819C48.9601 44.4909 49.0691 44.5999 49.1781 44.7088C49.931 45.4617 49.931 45.4617 49.1781 46.2245C48.6431 46.7594 48.6431 46.7594 49.0889 47.3736C49.4356 47.8491 49.7031 48.3543 49.9111 48.8992C50.0201 49.1964 49.9607 49.4242 49.6734 49.5827ZM70.8628 44.0352C70.526 44.8376 66.93 45.541 61.4717 43.2625C59.8669 42.5988 58.381 41.7667 57.1625 40.8751C57.1229 40.9247 57.0733 40.9742 57.0337 41.0237C55.845 42.2125 53.9033 42.2125 52.7146 41.0237C51.5259 39.835 51.5259 37.8934 52.7146 36.7046C53.9033 35.5159 55.845 35.5159 57.0337 36.7046C57.747 37.4179 58.0243 38.3887 57.8956 39.31C59.0645 40.1421 60.4712 40.9049 61.967 41.529C62.5019 41.7469 63.0072 41.945 63.5025 42.1134L63.443 37.8141C63.5322 37.8537 63.6114 37.8835 63.7006 37.9231C66.0385 38.8939 68.1386 40.2213 69.4957 41.5785C69.5156 41.5983 69.5354 41.6181 69.5552 41.6379C70.843 42.9356 70.9718 43.7678 70.8628 44.0352Z" fill="#FBAE17"/>
</svg>
