<svg width="100" height="100" viewBox="0 0 100 100" fill="none" xmlns="http://www.w3.org/2000/svg">
<rect width="100" height="100" rx="50" fill="#004687"/>
<path d="M42.83 57.14C40.5 58.97 39 61.81 39 65V68H33C31.34 68 30 66.66 30 65V63C30 59.13 33.13 56 37 56H39C40.42 56 41.73 56.42 42.83 57.14Z" fill="#FBAE17"/>
<path d="M62 56C64.4853 56 66.5 53.9853 66.5 51.5C66.5 49.0147 64.4853 47 62 47C59.5147 47 57.5 49.0147 57.5 51.5C57.5 53.9853 59.5147 56 62 56Z" fill="#FBAE17"/>
<path d="M38 56C40.4853 56 42.5 53.9853 42.5 51.5C42.5 49.0147 40.4853 47 38 47C35.5147 47 33.5 49.0147 33.5 51.5C33.5 53.9853 35.5147 56 38 56Z" fill="#FBAE17"/>
<path d="M69.9999 63V65C69.9999 66.66 68.6599 68 66.9999 68H60.9999V65C60.9999 61.81 59.4999 58.97 57.1699 57.14C58.2699 56.42 59.5799 56 60.9999 56H62.9999C66.8699 56 69.9999 59.13 69.9999 63Z" fill="#FBAE17"/>
<path d="M50 57C53.0376 57 55.5 54.5376 55.5 51.5C55.5 48.4624 53.0376 46 50 46C46.9624 46 44.5 48.4624 44.5 51.5C44.5 54.5376 46.9624 57 50 57Z" fill="#FBAE17"/>
<path d="M51 57H49C44.589 57 41 60.589 41 65V68C41 69.654 42.346 71 44 71H56C57.654 71 59 69.654 59 68V65C59 60.589 55.411 57 51 57Z" fill="#FBAE17"/>
<path d="M64.5002 42.6833L62.0872 43.5413C61.4022 43.7843 60.6872 43.2653 60.7072 42.5383L60.7772 39.9783L59.2152 37.9483C58.7722 37.3723 59.0452 36.5313 59.7422 36.3253L62.1992 35.6013L63.6472 33.4883C64.0582 32.8893 64.9422 32.8893 65.3532 33.4883L66.8012 35.6013L69.2582 36.3253C69.9552 36.5303 70.2282 37.3723 69.7852 37.9483L68.2232 39.9783L68.2932 42.5383C68.3132 43.2643 67.5972 43.7843 66.9132 43.5413L64.5002 42.6833Z" fill="#FBAE17"/>
<path d="M35.5002 42.6833L33.0872 43.5413C32.4022 43.7843 31.6872 43.2653 31.7072 42.5383L31.7772 39.9783L30.2152 37.9483C29.7722 37.3723 30.0452 36.5313 30.7422 36.3253L33.1992 35.6013L34.6472 33.4883C35.0582 32.8893 35.9422 32.8893 36.3532 33.4883L37.8012 35.6013L40.2582 36.3253C40.9552 36.5303 41.2282 37.3723 40.7852 37.9483L39.2232 39.9783L39.2932 42.5383C39.3132 43.2643 38.5972 43.7843 37.9132 43.5413L35.5002 42.6833Z" fill="#FBAE17"/>
<path d="M49.9994 40.4353L47.1384 41.4523C46.3264 41.7413 45.4784 41.1243 45.5024 40.2633L45.5854 37.2283L43.7334 34.8212C43.2084 34.1382 43.5324 33.1412 44.3584 32.8972L47.2714 32.0383L48.9884 29.5333C49.4754 28.8223 50.5244 28.8223 51.0114 29.5333L52.7284 32.0383L55.6414 32.8972C56.4674 33.1412 56.7914 34.1382 56.2664 34.8212L54.4144 37.2283L54.4974 40.2633C54.5214 41.1243 53.6724 41.7413 52.8614 41.4523L49.9994 40.4353Z" fill="#FBAE17"/>
</svg>
