<svg width="24" height="24" viewBox="0 0 24 24" fill="none" xmlns="http://www.w3.org/2000/svg">
<g clip-path="url(#clip0_2065_5902)">
<path d="M11.8295 11.5609C13.4177 11.5609 14.793 10.9912 15.9167 9.86733C17.0405 8.74362 17.6101 7.36868 17.6101 5.78025C17.6101 4.19237 17.0405 2.81725 15.9166 1.69317C14.7927 0.569639 13.4175 0 11.8295 0C10.241 0 8.86609 0.569639 7.74237 1.69335C6.61865 2.81707 6.04883 4.19218 6.04883 5.78025C6.04883 7.36868 6.61865 8.7438 7.74255 9.86751C8.86646 10.991 10.2416 11.5609 11.8295 11.5609Z" fill="black"/>
<path d="M21.9435 18.4556C21.9111 17.988 21.8456 17.4778 21.7491 16.9391C21.6517 16.3964 21.5262 15.8833 21.3761 15.4144C21.221 14.9297 21.0101 14.4511 20.7493 13.9924C20.4787 13.5163 20.1608 13.1018 19.8041 12.7607C19.4312 12.4038 18.9745 12.1169 18.4464 11.9076C17.9202 11.6994 17.337 11.5939 16.7131 11.5939C16.4681 11.5939 16.2312 11.6945 15.7736 11.9924C15.492 12.176 15.1626 12.3884 14.7949 12.6233C14.4805 12.8237 14.0546 13.0113 13.5286 13.1813C13.0153 13.3473 12.4942 13.4316 11.9799 13.4316C11.4655 13.4316 10.9446 13.3473 10.4308 13.1813C9.90527 13.0115 9.47937 12.8238 9.16534 12.6235C8.80115 12.3908 8.47156 12.1784 8.18573 11.9922C7.7287 11.6943 7.49158 11.5938 7.24658 11.5938C6.62256 11.5938 6.03955 11.6994 5.51349 11.9078C4.98578 12.1167 4.52893 12.4036 4.15558 12.7609C3.79907 13.1022 3.48102 13.5165 3.21075 13.9924C2.9502 14.4511 2.73926 14.9296 2.58398 15.4146C2.43402 15.8835 2.30859 16.3964 2.21118 16.9391C2.11469 17.4771 2.04913 17.9874 2.01672 18.4562C1.98486 18.9154 1.96875 19.392 1.96875 19.8734C1.96875 21.1262 2.367 22.1404 3.15234 22.8884C3.92798 23.6265 4.95428 24.0009 6.20233 24.0009H17.7585C19.0065 24.0009 20.0325 23.6267 20.8083 22.8884C21.5938 22.141 21.9921 21.1265 21.9921 19.8732C21.9919 19.3896 21.9756 18.9126 21.9435 18.4556Z" fill="black"/>
</g>
<defs>
<clipPath id="clip0_2065_5902">
<rect width="24" height="24" fill="white"/>
</clipPath>
</defs>
</svg>
