<svg width="48" height="48" viewBox="0 0 48 48" fill="none" xmlns="http://www.w3.org/2000/svg">
<path d="M40.8 11.9992C30.8264 11.9952 26.3728 5.91202 25.1592 3.86322C24.916 3.45202 24.4784 3.19922 24 3.19922C23.5216 3.19922 23.0848 3.45202 22.8408 3.86322C21.6272 5.91202 17.1736 11.9952 7.20001 11.9992C6.31681 11.9992 5.60001 12.716 5.60001 13.5992V21.5992C5.60001 36.876 18.86 43.7152 22.3608 45.2536C22.88 45.4816 23.4336 45.5992 24 45.5992C24.5664 45.5992 25.12 45.4816 25.6392 45.2536C29.14 43.7152 42.4 36.876 42.4 21.5992V13.5992C42.4 12.716 41.6832 11.9992 40.8 11.9992ZM34.2624 26.8792C31.8832 30.652 28.8 32.7992 24 32.7992C19.2 32.7992 16.1256 30.6688 13.748 26.912C13.5512 26.6008 13.5512 26.1976 13.748 25.8872C16.1256 22.1296 19.2 19.9992 24 19.9992C28.8 19.9992 31.8832 22.1464 34.2624 25.9192C34.4464 26.2104 34.4464 26.588 34.2624 26.8792Z" fill="#FBAE17"/>
<path d="M24 29.5992C25.7673 29.5992 27.2 28.1665 27.2 26.3992C27.2 24.6319 25.7673 23.1992 24 23.1992C22.2327 23.1992 20.8 24.6319 20.8 26.3992C20.8 28.1665 22.2327 29.5992 24 29.5992Z" fill="#FBAE17"/>
</svg>
