<svg width="48" height="48" viewBox="0 0 48 48" fill="none" xmlns="http://www.w3.org/2000/svg">
<g clip-path="url(#clip0_2034_3222)">
<path d="M24 16C28.4183 16 32 12.4183 32 8C32 3.58172 28.4183 0 24 0C19.5817 0 16 3.58172 16 8C16 12.4183 19.5817 16 24 16Z" fill="#FBAE17"/>
<path d="M8.42 43C12.8383 43 16.42 39.4183 16.42 35C16.42 30.5817 12.8383 27 8.42 27C4.00172 27 0.419998 30.5817 0.419998 35C0.419998 39.4183 4.00172 43 8.42 43Z" fill="#FBAE17"/>
<path d="M5.8896 25.9883C5.96361 25.9961 6.03798 26.0001 6.1124 26.0001C6.60428 25.9994 7.07867 25.8175 7.4449 25.4892C7.81112 25.1608 8.04349 24.709 8.0976 24.2201C8.32391 22.1454 8.95675 20.1357 9.95996 18.3057C10.9632 16.4757 12.3171 14.8613 13.9444 13.5547C14.3465 13.2179 14.6002 12.7366 14.6508 12.2145C14.7014 11.6924 14.5449 11.1713 14.215 10.7635C13.885 10.3557 13.4081 10.0939 12.887 10.0344C12.3658 9.97491 11.8421 10.1225 11.4288 10.4455C9.39471 12.0794 7.7024 14.0979 6.44851 16.3859C5.19463 18.6739 4.40373 21.1864 4.121 23.7801C4.06311 24.3074 4.21685 24.8361 4.54845 25.2501C4.88005 25.6641 5.36241 25.9296 5.8896 25.9883Z" fill="#FBAE17"/>
<path d="M29.334 41.0907C25.8804 42.2977 22.1196 42.2977 18.666 41.0907C18.1656 40.914 17.6156 40.9434 17.1368 41.1723C16.6581 41.4013 16.2899 41.811 16.1133 42.3114C15.9367 42.8117 15.966 43.3618 16.195 43.8405C16.4239 44.3192 16.8336 44.6874 17.334 44.8641C21.6488 46.3798 26.3512 46.3798 30.666 44.8641C31.1664 44.6874 31.5761 44.3192 31.805 43.8405C32.034 43.3618 32.0633 42.8117 31.8867 42.3114C31.7101 41.811 31.3419 41.4013 30.8632 41.1723C30.3844 40.9434 29.8344 40.914 29.334 41.0907Z" fill="#FBAE17"/>
<path d="M39.9024 24.2207C39.9565 24.7096 40.1889 25.1614 40.5551 25.4898C40.9213 25.8181 41.3957 26 41.8876 26.0007C41.962 26.0007 42.0364 25.9967 42.1104 25.9889C42.3716 25.9602 42.6247 25.8803 42.855 25.7538C43.0853 25.6273 43.2885 25.4566 43.4528 25.2515C43.6172 25.0465 43.7395 24.811 43.8128 24.5586C43.8861 24.3062 43.9089 24.0419 43.88 23.7807C43.3369 18.8901 41.0064 14.3726 37.336 11.0953C36.94 10.7473 36.4225 10.5697 35.8962 10.6012C35.37 10.6328 34.8774 10.8708 34.5258 11.2636C34.1741 11.6564 33.9917 12.1722 34.0184 12.6987C34.045 13.2253 34.2785 13.72 34.668 14.0753C37.6044 16.6957 39.4687 20.309 39.9024 24.2207Z" fill="#FBAE17"/>
<path d="M39.58 43C43.9983 43 47.58 39.4183 47.58 35C47.58 30.5817 43.9983 27 39.58 27C35.1617 27 31.58 30.5817 31.58 35C31.58 39.4183 35.1617 43 39.58 43Z" fill="#FBAE17"/>
</g>
<defs>
<clipPath id="clip0_2034_3222">
<rect width="48" height="48" fill="white"/>
</clipPath>
</defs>
</svg>
