<svg width="48" height="48" viewBox="0 0 48 48" fill="none" xmlns="http://www.w3.org/2000/svg">
<path d="M39.4605 22.141L29.172 17.344C29.0565 17.29 29.004 17.2 28.9785 17.134C28.9545 17.068 28.938 16.9645 28.992 16.849L33.2055 7.81152C33.8865 6.34902 33.4875 4.70502 32.2125 3.71802C30.933 2.73102 29.244 2.75802 27.9975 3.78702L17.2275 12.694L7.863 20.1655C6.945 20.899 6.4785 22.0345 6.618 23.2015C6.7575 24.3685 7.476 25.363 8.541 25.8595L18.8295 30.6565C18.945 30.7105 18.9975 30.8005 19.023 30.8665C19.047 30.9325 19.0635 31.036 19.0095 31.153L14.796 40.189C14.115 41.6515 14.514 43.2955 15.789 44.2825C16.413 44.764 17.1345 45.004 17.856 45.004C18.612 45.004 19.3665 44.74 20.004 44.2135L30.774 35.3065L40.1385 27.835C41.0565 27.1015 41.523 25.966 41.3835 24.799C41.244 23.632 40.5255 22.6375 39.4605 22.141Z" fill="#FBAE17"/>
</svg>
