<svg width="48" height="48" viewBox="0 0 48 48" fill="none" xmlns="http://www.w3.org/2000/svg">
<g clip-path="url(#clip0_2034_3224)">
<path d="M11.9273 19.5738C17.1443 19.5738 21.3887 15.3295 21.3887 10.1125C20.9131 -2.42196 2.93982 -2.41868 2.46602 10.1126C2.46611 15.3294 6.71041 19.5738 11.9273 19.5738Z" fill="#FBAE17"/>
<path d="M47.81 17.6595L38.0198 0.70191C37.4975 -0.228902 36.1063 -0.228621 35.5843 0.70191L25.7939 17.6595C25.249 18.5772 25.9448 19.7819 27.0117 19.7688H46.5922C47.6594 19.7819 48.3548 18.5768 47.81 17.6595Z" fill="#FBAE17"/>
<path d="M45.0638 26.3789H28.4956C27.719 26.3789 27.0894 27.0085 27.0894 27.7851V44.3533C27.0894 45.1299 27.719 45.7595 28.4956 45.7595H45.0638C45.8404 45.7595 46.47 45.1299 46.47 44.3533V27.7851C46.47 27.0085 45.8404 26.3789 45.0638 26.3789Z" fill="#FBAE17"/>
<path d="M12.9213 24.5544C12.3723 24.0053 11.4818 24.0053 10.9327 24.5544L0.41193 35.0753C-0.137146 35.6243 -0.137239 36.5146 0.411836 37.0638L10.9334 47.5847C11.4825 48.1338 12.3729 48.1339 12.9221 47.5847L23.4429 37.0639C23.992 36.5148 23.9921 35.6245 23.443 35.0754L12.9213 24.5544Z" fill="#FBAE17"/>
</g>
<defs>
<clipPath id="clip0_2034_3224">
<rect width="48" height="48" fill="white"/>
</clipPath>
</defs>
</svg>
