<svg width="101" height="100" viewBox="0 0 101 100" fill="none" xmlns="http://www.w3.org/2000/svg">
<rect x="0.332031" width="100" height="100" rx="50" fill="#004687"/>
<g clip-path="url(#clip0_2053_5043)">
<path d="M65.9316 57.5391C63.6818 57.5391 61.8516 59.3698 61.8516 61.6191C61.8516 63.8688 63.6818 65.6991 65.9316 65.6991C68.1808 65.6991 70.0116 63.8688 70.0116 61.6191C70.0116 59.3698 68.1808 57.5391 65.9316 57.5391ZM65.9316 62.8191C65.2697 62.8191 64.7316 62.2809 64.7316 61.6191C64.7316 60.9572 65.2697 60.4191 65.9316 60.4191C66.5934 60.4191 67.1316 60.9572 67.1316 61.6191C67.1316 62.2809 66.5934 62.8191 65.9316 62.8191Z" fill="#FBAE17"/>
<path d="M65.5405 40.582H58.4913C57.9608 40.582 57.5312 41.0121 57.5312 41.542V60.262C57.5312 60.7919 57.9608 61.222 58.4913 61.222H59.5094C59.9846 61.222 60.4055 60.8798 60.4669 60.4085C60.8437 57.5217 63.1463 55.7314 65.9317 55.7314C68.7171 55.7314 71.0197 57.5218 71.3965 60.4085C71.4579 60.8798 71.8784 61.222 72.3541 61.222H73.3712C73.9011 61.222 74.3312 60.7919 74.3312 60.262V50.902C74.3312 50.6765 74.252 50.4585 74.1075 50.2862L66.2767 40.9262C66.0945 40.7083 65.8247 40.582 65.5405 40.582ZM59.4513 48.262V43.462C59.4513 42.9321 59.8808 42.502 60.4112 42.502H64.64C64.9247 42.502 65.1949 42.6288 65.3773 42.8476L69.3771 47.6476C69.8979 48.273 69.4534 49.222 68.6394 49.222H60.4112C59.8808 49.222 59.4513 48.7925 59.4513 48.262Z" fill="#FBAE17"/>
<path d="M27.292 61.2208H29.7501C30.2254 61.2208 30.6463 60.8785 30.7077 60.4072C31.0845 57.5205 33.3871 55.7301 36.1725 55.7301C38.9579 55.7301 41.2605 57.5205 41.6373 60.4072C41.6987 60.8786 42.1192 61.2208 42.5949 61.2208H54.652C55.182 61.2208 55.612 60.7907 55.612 60.2608V36.2608C55.612 35.7309 55.1819 35.3008 54.652 35.3008H27.292C26.7616 35.3008 26.332 35.7309 26.332 36.2608V60.2608C26.332 60.7907 26.7616 61.2208 27.292 61.2208Z" fill="#FBAE17"/>
<path d="M36.1718 57.5391C33.9221 57.5391 32.0918 59.3698 32.0918 61.6191C32.0918 63.8688 33.9221 65.6991 36.1718 65.6991C38.4211 65.6991 40.2518 63.8688 40.2518 61.6191C40.2518 59.3698 38.4211 57.5391 36.1718 57.5391ZM36.1718 62.8191C35.5099 62.8191 34.9718 62.2809 34.9718 61.6191C34.9718 60.9572 35.5099 60.4191 36.1718 60.4191C36.8337 60.4191 37.3718 60.9572 37.3718 61.6191C37.3718 62.2809 36.8337 62.8191 36.1718 62.8191Z" fill="#FBAE17"/>
</g>
<defs>
<clipPath id="clip0_2053_5043">
<rect width="48" height="48" fill="white" transform="translate(26.332 26.5)"/>
</clipPath>
</defs>
</svg>
