<?xml version="1.0" encoding="UTF-8"?>
<!DOCTYPE svg PUBLIC "-//W3C//DTD SVG 1.1//EN" "http://www.w3.org/Graphics/SVG/1.1/DTD/svg11.dtd">
<svg xmlns="http://www.w3.org/2000/svg" version="1.1" width="1784px" height="712px" style="shape-rendering:geometricPrecision; text-rendering:geometricPrecision; image-rendering:optimizeQuality; fill-rule:evenodd; clip-rule:evenodd" xmlns:xlink="http://www.w3.org/1999/xlink">
<g><path style="opacity:0.986" fill="#f22433" d="M 1187.5,-0.5 C 1210.17,-0.5 1232.83,-0.5 1255.5,-0.5C 1334.94,0.768006 1413.94,8.26801 1492.5,22C 1556.15,33.1584 1617.15,52.4917 1675.5,80C 1708.68,96.1977 1738.85,116.698 1766,141.5C 1766.67,142.167 1766.67,142.833 1766,143.5C 1736.43,136.598 1706.93,137.098 1677.5,145C 1637.67,156.662 1611.17,182.162 1598,221.5C 1590.65,245.947 1587.32,270.947 1588,296.5C 1578.96,271.742 1566.29,249.076 1550,228.5C 1523.74,196.89 1493.24,170.39 1458.5,149C 1394.1,110.647 1325.1,83.6472 1251.5,68C 1188.88,54.0537 1125.54,45.0537 1061.5,41C 960.066,34.9469 858.733,35.9469 757.5,44C 825.294,30.9339 893.627,20.9339 962.5,14C 1037.47,6.21052 1112.47,1.37718 1187.5,-0.5 Z"/></g>
<g><path style="opacity:0.968" fill="#001136" d="M 777.5,266.5 C 794.064,264.745 809.731,267.578 824.5,275C 831.902,280.47 835.902,287.803 836.5,297C 832.96,324.818 829.46,352.651 826,380.5C 821.241,395.59 811.074,404.756 795.5,408C 778.308,411.753 761.308,411.086 744.5,406C 730.37,400.199 724.204,389.699 726,374.5C 729,349.5 732,324.5 735,299.5C 737.337,285.494 745.171,275.994 758.5,271C 764.857,268.992 771.19,267.492 777.5,266.5 Z M 780.5,290.5 C 789.007,289.413 796.84,291.08 804,295.5C 805.838,298.037 806.671,300.871 806.5,304C 803.783,327.902 800.617,351.735 797,375.5C 795.895,378.937 793.728,381.437 790.5,383C 780.167,387.667 769.833,387.667 759.5,383C 756.798,380.597 755.131,377.597 754.5,374C 757.707,350.177 760.874,326.344 764,302.5C 767.513,295.67 773.013,291.67 780.5,290.5 Z"/></g>
<g><path style="opacity:0.965" fill="#001136" d="M 1019.5,266.5 C 1031.7,265.818 1043.7,266.985 1055.5,270C 1073.66,278.107 1079.66,291.774 1073.5,311C 1064.15,311.832 1054.82,311.665 1045.5,310.5C 1049.22,296.374 1043.72,289.374 1029,289.5C 1022.58,289.581 1016.74,291.414 1011.5,295C 1006.77,301.918 1006.44,308.918 1010.5,316C 1024.5,321.333 1038.5,326.667 1052.5,332C 1060.25,336.073 1065.41,342.24 1068,350.5C 1073.31,390.858 1055.64,410.858 1015,410.5C 1000.95,411.115 988.119,407.615 976.5,400C 970.327,393.993 967.66,386.659 968.5,378C 968.649,372.468 969.149,366.968 970,361.5C 979.417,360.515 988.917,360.182 998.5,360.5C 997.292,366.119 996.792,371.785 997,377.5C 998.573,382.071 1001.74,384.904 1006.5,386C 1014.26,387.986 1021.92,387.653 1029.5,385C 1034.84,382.993 1038,379.159 1039,373.5C 1041.79,367.335 1040.95,361.835 1036.5,357C 1021.62,350.391 1006.62,344.058 991.5,338C 984.613,334.113 980.447,328.279 979,320.5C 977.723,306.147 980.723,292.813 988,280.5C 997.03,272.399 1007.53,267.733 1019.5,266.5 Z"/></g>
<g><path style="opacity:0.966" fill="#001136" d="M 1183.5,266.5 C 1196.81,265.527 1209.81,267.027 1222.5,271C 1232.31,274.475 1238.14,281.308 1240,291.5C 1240.29,298.169 1240.12,304.836 1239.5,311.5C 1230.17,311.5 1220.83,311.5 1211.5,311.5C 1211.67,306.821 1211.5,302.155 1211,297.5C 1208.54,293.71 1205.04,291.544 1200.5,291C 1192.01,289.599 1184.01,290.932 1176.5,295C 1173.19,298.112 1171.36,301.945 1171,306.5C 1168.25,328.845 1165.42,351.178 1162.5,373.5C 1162.53,379.745 1165.53,383.578 1171.5,385C 1194.33,390.654 1205.33,381.82 1204.5,358.5C 1197.17,358.5 1189.83,358.5 1182.5,358.5C 1183.26,350.789 1184.26,343.122 1185.5,335.5C 1202.15,334.501 1218.82,334.167 1235.5,334.5C 1234.24,351.618 1232.07,368.618 1229,385.5C 1222.57,399.309 1211.74,407.142 1196.5,409C 1182.02,411.344 1167.69,410.678 1153.5,407C 1140.2,402.393 1133.53,393.06 1133.5,379C 1136.46,352.144 1139.63,325.311 1143,298.5C 1146.02,282.475 1155.52,272.641 1171.5,269C 1175.67,268.295 1179.67,267.461 1183.5,266.5 Z"/></g>
<g><path style="opacity:0.968" fill="#001136" d="M 1397.5,266.5 C 1414.06,264.745 1429.73,267.578 1444.5,275C 1451.9,280.47 1455.9,287.803 1456.5,297C 1452.96,324.818 1449.46,352.651 1446,380.5C 1441.24,395.59 1431.07,404.756 1415.5,408C 1398.31,411.753 1381.31,411.086 1364.5,406C 1350.37,400.199 1344.2,389.699 1346,374.5C 1349,349.833 1352,325.167 1355,300.5C 1356.88,285.948 1364.72,276.115 1378.5,271C 1384.86,268.992 1391.19,267.492 1397.5,266.5 Z M 1400.5,290.5 C 1409.01,289.413 1416.84,291.08 1424,295.5C 1425.87,298.205 1426.7,301.205 1426.5,304.5C 1423.74,328.239 1420.57,351.906 1417,375.5C 1415.9,378.937 1413.73,381.437 1410.5,383C 1400.17,387.667 1389.83,387.667 1379.5,383C 1376.65,380.471 1374.99,377.305 1374.5,373.5C 1377.75,349.863 1380.91,326.197 1384,302.5C 1387.51,295.67 1393.01,291.67 1400.5,290.5 Z"/></g>
<g><path style="opacity:0.97" fill="#001136" d="M -0.5,408.5 C -0.5,406.5 -0.5,404.5 -0.5,402.5C 5.3146,357.985 10.9813,313.319 16.5,268.5C 43.5,268.5 70.5,268.5 97.5,268.5C 96.76,276.493 96.0933,284.493 95.5,292.5C 77.8333,292.5 60.1667,292.5 42.5,292.5C 41.1661,303.171 39.8328,313.838 38.5,324.5C 54.8333,324.5 71.1667,324.5 87.5,324.5C 86.8265,331.889 85.8265,339.222 84.5,346.5C 68.1803,347.499 51.8469,347.833 35.5,347.5C 33.9201,359.806 32.5867,372.14 31.5,384.5C 49.5,384.5 67.5,384.5 85.5,384.5C 84.9086,392.232 83.9086,399.898 82.5,407.5C 54.8414,408.5 27.1747,408.833 -0.5,408.5 Z"/></g>
<g><path style="opacity:0.963" fill="#001136" d="M 109.5,268.5 C 119.839,268.334 130.172,268.5 140.5,269C 147.129,283.092 153.629,297.258 160,311.5C 169.747,297.673 179.247,283.673 188.5,269.5C 198.833,268.167 209.167,268.167 219.5,269.5C 203.306,291.861 187.306,314.361 171.5,337C 182.862,360.555 193.529,384.388 203.5,408.5C 193.145,408.832 182.812,408.499 172.5,407.5C 165.493,392.798 158.493,378.132 151.5,363.5C 140.946,377.901 130.946,392.734 121.5,408C 111.151,408.832 100.817,408.666 90.5,407.5C 106.833,383.5 123.167,359.5 139.5,335.5C 129.214,313.263 119.214,290.93 109.5,268.5 Z"/></g>
<g><path style="opacity:0.97" fill="#001136" d="M 235.5,268.5 C 257.872,268.066 280.206,268.566 302.5,270C 323.21,274.703 332.044,287.537 329,308.5C 329.003,320.825 326.336,332.492 321,343.5C 313.509,352.162 304.009,356.996 292.5,358C 279.199,359.277 265.865,359.777 252.5,359.5C 250.745,375.869 248.745,392.203 246.5,408.5C 237.167,408.5 227.833,408.5 218.5,408.5C 223.515,361.712 229.182,315.046 235.5,268.5 Z M 261.5,292.5 C 270.839,292.334 280.173,292.5 289.5,293C 297.529,294.529 301.196,299.362 300.5,307.5C 300.399,314.376 299.233,321.043 297,327.5C 293.068,332.481 287.901,334.981 281.5,335C 272.833,335.667 264.167,335.667 255.5,335C 257.537,320.837 259.537,306.67 261.5,292.5 Z"/></g>
<g><path style="opacity:0.971" fill="#001136" d="M 353.5,268.5 C 380.833,268.5 408.167,268.5 435.5,268.5C 434.646,276.522 433.646,284.522 432.5,292.5C 415.154,292.167 397.821,292.5 380.5,293.5C 378.758,303.769 377.425,314.102 376.5,324.5C 392.847,324.167 409.18,324.501 425.5,325.5C 424.209,332.784 423.209,340.118 422.5,347.5C 406.153,347.167 389.82,347.501 373.5,348.5C 371.76,360.157 370.094,371.824 368.5,383.5C 386.821,384.5 405.155,384.833 423.5,384.5C 422.5,392.5 421.5,400.5 420.5,408.5C 392.833,408.5 365.167,408.5 337.5,408.5C 342.833,361.834 348.167,315.168 353.5,268.5 Z"/></g>
<g><path style="opacity:0.971" fill="#001136" d="M 458.5,268.5 C 479.503,268.333 500.503,268.5 521.5,269C 534.01,269.837 544.177,275.004 552,284.5C 555.291,291.836 556.291,299.502 555,307.5C 552.164,331.522 549.164,355.522 546,379.5C 542.262,392.238 534.096,400.738 521.5,405C 516.594,406.476 511.594,407.476 506.5,408C 484.836,408.5 463.169,408.667 441.5,408.5C 447.495,361.874 453.162,315.207 458.5,268.5 Z M 484.5,292.5 C 495.896,292.091 507.23,292.591 518.5,294C 523.594,295.84 526.261,299.507 526.5,305C 523.708,327.17 520.875,349.336 518,371.5C 515.458,378.862 510.292,383.028 502.5,384C 492.839,384.5 483.172,384.666 473.5,384.5C 477.495,353.873 481.162,323.207 484.5,292.5 Z"/></g>
<g><path style="opacity:0.969" fill="#001136" d="M 584.5,268.5 C 594.167,268.5 603.833,268.5 613.5,268.5C 608.165,314.512 602.665,360.512 597,406.5C 592.25,407.804 587.25,408.47 582,408.5C 577.167,408.167 572.333,407.833 567.5,407.5C 573.677,361.242 579.344,314.909 584.5,268.5 Z"/></g>
<g><path style="opacity:0.969" fill="#001136" d="M 629.5,268.5 C 661.833,268.5 694.167,268.5 726.5,268.5C 725.907,276.507 725.24,284.507 724.5,292.5C 712.833,292.5 701.167,292.5 689.5,292.5C 684.997,331.188 680.331,369.855 675.5,408.5C 665.833,408.5 656.167,408.5 646.5,408.5C 651.495,369.874 656.162,331.207 660.5,292.5C 649.147,292.832 637.814,292.499 626.5,291.5C 627.745,283.878 628.745,276.211 629.5,268.5 Z"/></g>
<g><path style="opacity:0.971" fill="#001136" d="M 865.5,268.5 C 887.539,268.067 909.539,268.567 931.5,270C 949.228,273.22 958.562,283.72 959.5,301.5C 959.123,311.269 957.957,320.935 956,330.5C 951.833,341.012 944.333,348.012 933.5,351.5C 933.167,352.167 932.833,352.833 932.5,353.5C 937.84,371.852 943.174,390.185 948.5,408.5C 938.478,408.832 928.478,408.499 918.5,407.5C 913.087,390.265 908.087,372.932 903.5,355.5C 896.833,355.5 890.167,355.5 883.5,355.5C 881.09,373.114 879.09,390.781 877.5,408.5C 867.833,408.5 858.167,408.5 848.5,408.5C 853.679,361.732 859.346,315.065 865.5,268.5 Z M 891.5,292.5 C 901.172,292.334 910.839,292.5 920.5,293C 924.843,294.01 928.01,296.51 930,300.5C 931.247,308.825 930.247,316.825 927,324.5C 923.457,328.574 918.957,330.741 913.5,331C 904.506,331.5 895.506,331.666 886.5,331.5C 888.074,318.483 889.741,305.483 891.5,292.5 Z"/></g>
<g><path style="opacity:0.969" fill="#001136" d="M 1268.5,268.5 C 1278.17,268.5 1287.83,268.5 1297.5,268.5C 1292.61,307.139 1287.95,345.805 1283.5,384.5C 1300.17,384.5 1316.83,384.5 1333.5,384.5C 1332.83,392.5 1332.17,400.5 1331.5,408.5C 1304.83,408.5 1278.17,408.5 1251.5,408.5C 1257,361.814 1262.67,315.147 1268.5,268.5 Z"/></g>
<g><path style="opacity:0.972" fill="#001136" d="M 1485.5,268.5 C 1504.17,268.333 1522.84,268.5 1541.5,269C 1570.96,272.724 1581.13,288.891 1572,317.5C 1569.66,325.841 1564.49,331.674 1556.5,335C 1571.42,341.343 1576.92,352.51 1573,368.5C 1573.41,385.54 1565.91,397.373 1550.5,404C 1544.67,406.099 1538.67,407.432 1532.5,408C 1511.17,408.5 1489.84,408.667 1468.5,408.5C 1473.68,361.731 1479.35,315.065 1485.5,268.5 Z M 1511.5,291.5 C 1519.17,291.334 1526.84,291.5 1534.5,292C 1544.28,294.382 1547.78,300.549 1545,310.5C 1544.16,317.013 1540.66,321.513 1534.5,324C 1525.63,326.034 1516.63,326.867 1507.5,326.5C 1508.42,314.78 1509.76,303.114 1511.5,291.5 Z M 1504.5,347.5 C 1512.17,347.334 1519.84,347.5 1527.5,348C 1532.52,348.118 1537.19,349.451 1541.5,352C 1543.8,354.545 1545.13,357.545 1545.5,361C 1546.96,374.788 1540.96,382.788 1527.5,385C 1518.17,385.667 1508.83,385.667 1499.5,385C 1501.35,372.559 1503.01,360.059 1504.5,347.5 Z"/></g>
<g><path style="opacity:0.968" fill="#001136" d="M 1630.5,268.5 C 1641.75,268.179 1652.91,268.513 1664,269.5C 1671.59,315.782 1678.75,362.115 1685.5,408.5C 1675.83,408.5 1666.17,408.5 1656.5,408.5C 1655.45,398.458 1654.11,388.458 1652.5,378.5C 1639.5,378.5 1626.5,378.5 1613.5,378.5C 1610.33,388.508 1606.66,398.341 1602.5,408C 1593.17,408.667 1583.83,408.667 1574.5,408C 1593.31,361.55 1611.98,315.05 1630.5,268.5 Z M 1641.5,307.5 C 1644.52,322.978 1647.19,338.644 1649.5,354.5C 1640.83,355.833 1632.17,355.833 1623.5,354.5C 1629.9,338.954 1635.9,323.288 1641.5,307.5 Z"/></g>
<g><path style="opacity:0.969" fill="#001136" d="M 1783.5,384.5 C 1783.5,385.833 1783.5,387.167 1783.5,388.5C 1782.19,394.986 1781.19,401.653 1780.5,408.5C 1753.83,408.5 1727.17,408.5 1700.5,408.5C 1706.41,362.191 1712.25,315.858 1718,269.5C 1727.42,268.515 1736.92,268.182 1746.5,268.5C 1742.16,307.212 1737.49,345.879 1732.5,384.5C 1749.5,384.5 1766.5,384.5 1783.5,384.5 Z"/></g>
<g><path style="opacity:0.986" fill="#f22433" d="M 614.5,711.5 C 579.167,711.5 543.833,711.5 508.5,711.5C 426.178,709.483 344.511,700.316 263.5,684C 205.974,672.158 150.974,653.158 98.5,627C 68.3458,611.171 40.6791,591.838 15.5,569C 16.3333,568.833 17.1667,568.667 18,568.5C 47.7024,574.464 77.2024,573.631 106.5,566C 147.404,553.429 173.904,526.596 186,485.5C 192.114,462.585 195.114,439.252 195,415.5C 206.091,446.371 222.758,473.704 245,497.5C 284.068,537.888 329.235,569.722 380.5,593C 445.454,622.158 513.121,642.491 583.5,654C 695.824,672.03 808.824,678.363 922.5,673C 956.857,671.41 991.19,669.743 1025.5,668C 889.415,692.584 752.415,707.084 614.5,711.5 Z"/></g>
<g><path style="opacity:0.919" fill="#f22433" d="M 354.5,445.5 C 370.741,447.28 377.241,456.28 374,472.5C 369.148,486.68 359.314,492.18 344.5,489C 336.555,485.707 332.555,479.707 332.5,471C 332.658,456.025 339.991,447.525 354.5,445.5 Z M 352.5,455.5 C 359.25,455.083 362.583,458.25 362.5,465C 362.344,469.136 361.177,472.969 359,476.5C 354.959,481.313 350.625,481.646 346,477.5C 343.533,468.685 345.7,461.351 352.5,455.5 Z"/></g>
<g><path style="opacity:0.91" fill="#f22433" d="M 531.5,445.5 C 541.061,445.574 547.394,450.074 550.5,459C 550.095,459.945 549.428,460.612 548.5,461C 545.207,461.826 541.874,462.326 538.5,462.5C 537.332,455.916 533.665,454.082 527.5,457C 521.532,462.815 520.032,469.648 523,477.5C 526.112,480.723 529.612,481.223 533.5,479C 534.68,477.104 536.18,475.604 538,474.5C 541.147,475.662 544.314,476.662 547.5,477.5C 546.119,483.384 542.453,487.217 536.5,489C 516.168,492.333 507.334,483.833 510,463.5C 513.158,452.494 520.325,446.494 531.5,445.5 Z"/></g>
<g><path style="opacity:0.912" fill="#f22433" d="M 678.5,445.5 C 689.314,445.051 695.648,450.051 697.5,460.5C 693.837,461.112 690.17,461.279 686.5,461C 683.819,455.665 679.819,454.332 674.5,457C 668.424,462.773 666.924,469.606 670,477.5C 675.644,482.003 680.477,481.337 684.5,475.5C 681.572,474.516 678.572,474.183 675.5,474.5C 676.092,471.873 676.425,469.206 676.5,466.5C 683.167,466.5 689.833,466.5 696.5,466.5C 694.675,474.133 693.008,481.8 691.5,489.5C 688.482,489.665 685.482,489.498 682.5,489C 683.451,488.282 683.617,487.449 683,486.5C 682.097,487.701 680.931,488.535 679.5,489C 668.849,491.801 661.349,488.301 657,478.5C 654.401,467.302 657.235,457.802 665.5,450C 669.614,447.461 673.947,445.961 678.5,445.5 Z"/></g>
<g><path style="opacity:0.922" fill="#f22433" d="M 729.5,445.5 C 744.603,447.016 751.103,455.349 749,470.5C 745.289,486.118 735.456,492.285 719.5,489C 714.427,487.594 710.927,484.428 709,479.5C 705.478,468.085 707.978,458.252 716.5,450C 720.577,447.46 724.91,445.96 729.5,445.5 Z M 727.5,455.5 C 734.231,455.064 737.564,458.231 737.5,465C 736.984,469.549 735.484,473.715 733,477.5C 729,481.5 725,481.5 721,477.5C 718.034,468.571 720.201,461.238 727.5,455.5 Z"/></g>
<g><path style="opacity:0.919" fill="#f22433" d="M 869.5,445.5 C 886.595,447.337 893.095,456.67 889,473.5C 884.3,487.105 874.8,492.272 860.5,489C 855.09,487.257 851.256,483.757 849,478.5C 846.703,468.171 848.869,459.004 855.5,451C 859.845,448.057 864.511,446.224 869.5,445.5 Z M 868.5,455.5 C 874.712,454.875 878.045,457.709 878.5,464C 877.836,467.991 876.669,471.824 875,475.5C 867.948,482.779 862.782,481.612 859.5,472C 859.789,464.921 862.789,459.421 868.5,455.5 Z"/></g>
<g><path style="opacity:0.906" fill="#f22433" d="M 1046.5,445.5 C 1056.15,445.146 1062.48,449.479 1065.5,458.5C 1065.18,459.647 1064.52,460.481 1063.5,461C 1060.56,462.124 1057.56,462.458 1054.5,462C 1052.54,455.556 1048.54,453.889 1042.5,457C 1036.23,463.552 1035.23,470.718 1039.5,478.5C 1042.42,480.818 1045.42,480.984 1048.5,479C 1050.02,477.478 1051.52,475.978 1053,474.5C 1056.15,475.662 1059.31,476.662 1062.5,477.5C 1061.12,483.384 1057.45,487.217 1051.5,489C 1028.07,491.351 1019.9,481.184 1027,458.5C 1031.16,450.512 1037.66,446.179 1046.5,445.5 Z"/></g>
<g><path style="opacity:0.918" fill="#f22433" d="M 1095.5,445.5 C 1112.14,446.992 1118.64,455.992 1115,472.5C 1110.27,486.865 1100.43,492.365 1085.5,489C 1077.3,485.623 1073.3,479.456 1073.5,470.5C 1073.89,455.785 1081.23,447.452 1095.5,445.5 Z M 1093.5,455.5 C 1100.06,455.06 1103.39,458.06 1103.5,464.5C 1103.45,468.821 1102.28,472.821 1100,476.5C 1092.42,482.883 1087.59,481.216 1085.5,471.5C 1085.72,464.773 1088.39,459.44 1093.5,455.5 Z"/></g>
<g><path style="opacity:0.897" fill="#f22433" d="M 290.5,446.5 C 294.182,446.335 297.848,446.501 301.5,447C 303.26,452.114 304.927,457.281 306.5,462.5C 310.368,457.282 314.368,452.115 318.5,447C 322.541,446.173 326.541,446.34 330.5,447.5C 324.192,456.308 317.692,464.975 311,473.5C 309.372,478.649 307.872,483.816 306.5,489C 302.5,489.667 298.5,489.667 294.5,489C 295.826,484.033 297.159,479.033 298.5,474C 295.52,464.897 292.854,455.731 290.5,446.5 Z"/></g>
<g><path style="opacity:0.911" fill="#f22433" d="M 391.5,446.5 C 395.514,446.334 399.514,446.501 403.5,447C 400.247,456.929 398.414,467.095 398,477.5C 402.294,481.601 406.294,481.268 410,476.5C 412.659,466.866 415.159,457.199 417.5,447.5C 421.5,446.167 425.5,446.167 429.5,447.5C 427.001,457.494 424.501,467.494 422,477.5C 420.622,482.208 417.788,485.708 413.5,488C 405.7,490.235 398.033,489.902 390.5,487C 389.333,485.833 388.167,484.667 387,483.5C 385.445,478.618 385.112,473.618 386,468.5C 387.649,461.081 389.482,453.748 391.5,446.5 Z"/></g>
<g><path style="opacity:0.913" fill="#f22433" d="M 442.5,446.5 C 450.174,446.334 457.841,446.5 465.5,447C 475.211,450.269 478.044,456.769 474,466.5C 471.76,469.402 468.927,471.569 465.5,473C 468.028,478.251 470.361,483.584 472.5,489C 468.179,489.499 463.846,489.666 459.5,489.5C 458.302,484.762 456.802,480.095 455,475.5C 452.667,474.167 450.333,474.167 448,475.5C 447.082,480.098 445.916,484.598 444.5,489C 440.848,489.499 437.182,489.665 433.5,489.5C 436.34,475.138 439.34,460.804 442.5,446.5 Z M 452.5,455.5 C 455.941,455.301 459.274,455.801 462.5,457C 464.124,460.206 463.458,462.872 460.5,465C 457.183,465.498 453.85,465.665 450.5,465.5C 451.167,462.167 451.833,458.833 452.5,455.5 Z"/></g>
<g><path style="opacity:0.912" fill="#f22433" d="M 575.5,446.5 C 580.5,446.5 585.5,446.5 590.5,446.5C 591.833,460.832 593.167,475.166 594.5,489.5C 590.833,489.5 587.167,489.5 583.5,489.5C 583.167,486.167 582.833,482.833 582.5,479.5C 578.154,479.334 573.821,479.501 569.5,480C 567.455,482.586 565.789,485.42 564.5,488.5C 560.167,489.833 555.833,489.833 551.5,488.5C 559.955,474.723 567.955,460.723 575.5,446.5 Z M 580.5,457.5 C 581.22,461.7 581.886,466.033 582.5,470.5C 579.554,471.655 576.554,471.821 573.5,471C 576.497,466.839 578.83,462.339 580.5,457.5 Z"/></g>
<g><path style="opacity:0.914" fill="#f22433" d="M 614.5,446.5 C 622.174,446.334 629.841,446.5 637.5,447C 646.669,450.151 649.502,456.317 646,465.5C 643.974,469.026 641.141,471.693 637.5,473.5C 640.1,478.636 642.1,483.97 643.5,489.5C 639.445,489.824 635.445,489.491 631.5,488.5C 630.03,484.088 628.363,479.755 626.5,475.5C 624.257,474.526 621.924,474.192 619.5,474.5C 618.817,479.231 617.817,483.898 616.5,488.5C 612.5,489.833 608.5,489.833 604.5,488.5C 608.15,474.565 611.484,460.565 614.5,446.5 Z M 624.5,455.5 C 627.397,455.319 630.23,455.652 633,456.5C 636.398,459.45 636.231,462.283 632.5,465C 629.183,465.498 625.85,465.665 622.5,465.5C 622.851,462.097 623.518,458.763 624.5,455.5 Z"/></g>
<g><path style="opacity:0.911" fill="#f22433" d="M 906.5,446.5 C 910.5,446.5 914.5,446.5 918.5,446.5C 916.583,455.67 914.583,464.837 912.5,474C 913.981,480.239 917.648,481.905 923.5,479C 927.66,468.53 930.66,457.697 932.5,446.5C 936.5,446.5 940.5,446.5 944.5,446.5C 942.408,458.797 939.241,470.797 935,482.5C 930.656,487.95 924.989,490.284 918,489.5C 904.582,490.082 898.915,483.749 901,470.5C 902.838,462.482 904.672,454.482 906.5,446.5 Z"/></g>
<g><path style="opacity:0.913" fill="#f22433" d="M 958.5,446.5 C 967.25,446.09 975.916,446.59 984.5,448C 989.105,450.208 991.105,453.875 990.5,459C 990.566,465.871 987.566,470.871 981.5,474C 983.598,478.793 985.598,483.626 987.5,488.5C 983.541,489.66 979.541,489.827 975.5,489C 973.814,484.458 971.981,479.958 970,475.5C 967.358,473.941 965.025,474.275 963,476.5C 962.004,480.816 961.17,485.149 960.5,489.5C 956.5,489.5 952.5,489.5 948.5,489.5C 951.367,475.035 954.7,460.702 958.5,446.5 Z M 967.5,455.5 C 970.978,455.184 974.312,455.684 977.5,457C 979.787,459.048 979.954,461.215 978,463.5C 974.026,465.647 969.86,465.98 965.5,464.5C 966.642,461.601 967.308,458.601 967.5,455.5 Z"/></g>
<g><path style="opacity:0.905" fill="#f22433" d="M 1132.5,446.5 C 1137.5,446.5 1142.5,446.5 1147.5,446.5C 1148.4,455.542 1149.56,464.542 1151,473.5C 1155.71,464.587 1160.54,455.753 1165.5,447C 1171.17,446.333 1176.83,446.333 1182.5,447C 1178.94,461.091 1175.6,475.258 1172.5,489.5C 1168.77,489.823 1165.11,489.489 1161.5,488.5C 1163.81,480.94 1165.31,473.273 1166,465.5C 1161.41,473.004 1157.08,480.671 1153,488.5C 1149.88,489.787 1146.71,489.787 1143.5,488.5C 1142.2,479.538 1141.04,470.538 1140,461.5C 1138.1,470.837 1136.27,480.17 1134.5,489.5C 1130.83,489.5 1127.17,489.5 1123.5,489.5C 1126.66,475.197 1129.66,460.864 1132.5,446.5 Z"/></g>
<g><path style="opacity:0.904" fill="#f22433" d="M 1196.5,446.5 C 1201.5,446.5 1206.5,446.5 1211.5,446.5C 1212,455.857 1212.84,465.191 1214,474.5C 1218.83,465.5 1223.67,456.5 1228.5,447.5C 1234.13,446.505 1239.79,446.171 1245.5,446.5C 1242.4,460.5 1239.23,474.5 1236,488.5C 1232.61,489.456 1229.11,489.789 1225.5,489.5C 1227.18,481.143 1228.68,472.81 1230,464.5C 1225.25,472.338 1220.75,480.338 1216.5,488.5C 1213.23,489.487 1209.9,489.82 1206.5,489.5C 1205.95,480.719 1204.78,472.052 1203,463.5C 1201.16,472.178 1199.33,480.845 1197.5,489.5C 1193.77,489.823 1190.11,489.489 1186.5,488.5C 1189.96,474.522 1193.3,460.522 1196.5,446.5 Z"/></g>
<g><path style="opacity:0.904" fill="#f22433" d="M 1259.5,446.5 C 1263.5,446.5 1267.5,446.5 1271.5,446.5C 1268.37,460.806 1265.37,475.139 1262.5,489.5C 1258.5,489.5 1254.5,489.5 1250.5,489.5C 1253.34,475.136 1256.34,460.803 1259.5,446.5 Z"/></g>
<g><path style="opacity:0.893" fill="#f22433" d="M 1282.5,446.5 C 1295.5,446.5 1308.5,446.5 1321.5,446.5C 1321.17,449.833 1320.83,453.167 1320.5,456.5C 1315.79,456.173 1311.12,456.507 1306.5,457.5C 1303.85,467.786 1301.35,478.119 1299,488.5C 1294.92,489.629 1290.75,489.796 1286.5,489C 1289.17,478.333 1291.83,467.667 1294.5,457C 1290.18,456.501 1285.85,456.334 1281.5,456.5C 1281.83,453.167 1282.17,449.833 1282.5,446.5 Z"/></g>
<g><path style="opacity:0.903" fill="#f22433" d="M 1333.5,446.5 C 1338.5,446.5 1343.5,446.5 1348.5,446.5C 1348.87,455.87 1349.7,465.203 1351,474.5C 1355.32,465.182 1360.16,456.182 1365.5,447.5C 1371.17,446.167 1376.83,446.167 1382.5,447.5C 1379.34,460.823 1376.17,474.156 1373,487.5C 1369.85,489.362 1366.35,490.029 1362.5,489.5C 1364.02,480.778 1365.52,472.111 1367,463.5C 1362.55,472.244 1357.71,480.744 1352.5,489C 1349.52,489.498 1346.52,489.665 1343.5,489.5C 1342.81,480.76 1341.64,472.093 1340,463.5C 1338.16,472.181 1336.33,480.847 1334.5,489.5C 1330.83,489.5 1327.17,489.5 1323.5,489.5C 1326.68,475.126 1330.01,460.793 1333.5,446.5 Z"/></g>
<g><path style="opacity:0.894" fill="#f22433" d="M 1396.5,446.5 C 1407.85,446.168 1419.19,446.501 1430.5,447.5C 1429.36,450.399 1428.69,453.399 1428.5,456.5C 1421.14,456.169 1413.8,456.503 1406.5,457.5C 1405.65,459.409 1405.32,461.409 1405.5,463.5C 1410.83,463.5 1416.17,463.5 1421.5,463.5C 1421.38,466.48 1420.71,469.313 1419.5,472C 1413.84,472.499 1408.18,472.666 1402.5,472.5C 1402.01,474.806 1401.67,477.139 1401.5,479.5C 1408.86,479.169 1416.2,479.503 1423.5,480.5C 1422.36,483.399 1421.69,486.399 1421.5,489.5C 1410.17,489.5 1398.83,489.5 1387.5,489.5C 1390.12,475.089 1393.12,460.756 1396.5,446.5 Z"/></g>
<g><path style="opacity:0.908" fill="#f22433" d="M 1442.5,446.5 C 1446.83,446.5 1451.17,446.5 1455.5,446.5C 1458.23,455.845 1461.06,465.178 1464,474.5C 1465.72,465.386 1467.89,456.386 1470.5,447.5C 1473.77,446.513 1477.1,446.18 1480.5,446.5C 1477.66,460.864 1474.66,475.197 1471.5,489.5C 1467.12,489.826 1462.78,489.492 1458.5,488.5C 1455.57,480.204 1452.73,471.871 1450,463.5C 1447.69,471.735 1445.52,480.068 1443.5,488.5C 1439.83,489.833 1436.17,489.833 1432.5,488.5C 1436.15,474.569 1439.48,460.569 1442.5,446.5 Z"/></g>
<g><path style="opacity:0.892" fill="#f22433" d="M 1492.5,446.5 C 1505.52,446.168 1518.52,446.501 1531.5,447.5C 1530.36,450.399 1529.69,453.399 1529.5,456.5C 1524.83,456.5 1520.17,456.5 1515.5,456.5C 1513.01,467.467 1510.67,478.467 1508.5,489.5C 1504.5,489.5 1500.5,489.5 1496.5,489.5C 1498.32,478.729 1500.65,468.063 1503.5,457.5C 1499.22,456.508 1494.88,456.174 1490.5,456.5C 1490.54,453.012 1491.21,449.679 1492.5,446.5 Z"/></g>
<g><path style="opacity:0.962" fill="#f22433" d="M 786.5,467.5 C 794.5,467.5 802.5,467.5 810.5,467.5C 810.037,470.482 809.704,473.482 809.5,476.5C 801.14,476.831 792.807,476.498 784.5,475.5C 785.482,472.904 786.149,470.238 786.5,467.5 Z"/></g>
</svg>
