<svg width="24" height="25" viewBox="0 0 24 25" fill="none" xmlns="http://www.w3.org/2000/svg">
<path d="M4.31381 9.01562H4.28531C3.74681 9.01562 3.30859 9.45398 3.30859 9.99231V12.1886L5.29053 10.8928V9.99231C5.29053 9.45398 4.85693 9.01562 4.31381 9.01562Z" fill="#001D3D"/>
<path d="M7.62124 7.03906C7.08274 7.03906 6.64453 7.47736 6.64453 8.01572V10.012L8.62635 8.71606V8.01572C8.62635 7.47736 8.18814 7.03906 7.64964 7.03906H7.62124Z" fill="#001D3D"/>
<path d="M16.9574 7.03906H16.9336C16.3905 7.03906 15.957 7.47736 15.957 8.01572V9.11151L17.9389 10.4026V8.01572C17.9389 7.47736 17.5005 7.03906 16.9574 7.03906Z" fill="#001D3D"/>
<path d="M20.2943 9.01562H20.2658C19.7274 9.01562 19.2891 9.45398 19.2891 9.99231V11.2834L21.271 12.5745V9.99231C21.271 9.45398 20.8374 9.01562 20.2943 9.01562Z" fill="#001D3D"/>
<path d="M1.64648 14.3845V15.6925C1.64648 15.9848 1.91556 16.2074 2.20324 16.1517L9.29522 14.1248C9.87508 14.0181 10.4084 14.4587 10.4084 15.0478V18.827C10.4084 19.1222 10.2679 19.3998 10.03 19.5745L7.55476 21.3932C7.43588 21.4805 7.36569 21.6193 7.36569 21.767V22.5827C7.36569 22.9179 7.71026 23.1424 8.01698 23.0069L11.1084 21.6408C11.1698 21.6137 11.2387 21.6586 11.2387 21.7256V22.8216C11.2387 23.2828 11.6576 23.6477 12.1325 23.5662C12.5048 23.5024 12.7599 23.1504 12.7599 22.7727V21.7256C12.7599 21.6586 12.8289 21.6137 12.8902 21.6408L15.9817 23.0069C16.2883 23.1424 16.633 22.9179 16.633 22.5827V21.767C16.633 21.6193 16.5628 21.4805 16.4438 21.3932L13.9686 19.5745C13.7308 19.3998 13.5901 19.1222 13.5901 18.827V15.0478C13.5901 14.4587 14.1283 14.0181 14.7034 14.1248L21.7955 16.1517C22.083 16.2074 22.3521 15.9848 22.3521 15.6925V14.3845C22.3521 14.2175 22.2639 14.0645 22.1248 13.981L14.0217 8.69796C13.7433 8.52635 13.5717 8.22487 13.5717 7.89553V3.71639C13.5717 3.36387 13.5254 3.016 13.4419 2.67277C13.2701 2.00486 12.6116 1.39258 11.9204 1.42506C11.3236 1.45397 10.8004 1.84001 10.6078 2.43623C10.4733 2.84903 10.4084 3.2804 10.4084 3.71639V7.89553C10.4084 8.22487 10.2368 8.52635 9.95846 8.69796L1.87387 13.981C1.73009 14.0691 1.64648 14.2175 1.64648 14.3845Z" fill="#001D3D"/>
</svg>
