<svg width="24" height="24" viewBox="0 0 24 24" fill="none" xmlns="http://www.w3.org/2000/svg">
<path d="M6.73828 8.42502C8.22919 9.29775 9.91283 9.78866 11.6365 9.84684V4.2832H6.73828V8.42502Z" fill="#001D3D"/>
<path d="M17.2615 4.2832H12.3633V9.85048C14.0906 9.78866 15.7706 9.30139 17.2615 8.42866V4.2832Z" fill="#001D3D"/>
<path d="M17.6247 17.7369L19.2465 16.1151V3.91869C19.2465 3.02051 18.5192 2.29688 17.6247 2.29688H6.37377C5.47559 2.29688 4.75195 3.02415 4.75195 3.91869V16.1151L6.37377 17.7369H17.6247ZM8.71923 15.3987C7.87195 15.3987 7.18468 14.7114 7.18468 13.8641C7.18468 13.0169 7.87195 12.3296 8.71923 12.3296C9.5665 12.3296 10.2538 13.0169 10.2538 13.8641C10.2574 14.7114 9.57014 15.3987 8.71923 15.3987ZM15.2792 15.3987C14.432 15.3987 13.7447 14.7114 13.7447 13.8641C13.7447 13.0169 14.432 12.3296 15.2792 12.3296C16.1265 12.3296 16.8138 13.0169 16.8138 13.8641C16.8138 14.7114 16.1265 15.3987 15.2792 15.3987ZM6.01014 8.63142V3.91869C6.01014 3.71869 6.17377 3.55506 6.37377 3.55506H11.9992H17.6247C17.8247 3.55506 17.9883 3.71869 17.9883 3.91869V8.63142C17.9883 8.75869 17.9229 8.87506 17.8138 8.94051C16.061 10.0132 14.0501 10.5805 11.9956 10.5805C9.94104 10.5805 7.93014 10.0132 6.17741 8.94051C6.07559 8.87506 6.01014 8.75869 6.01014 8.63142Z" fill="#001D3D"/>
<path d="M15.7891 1.43947C15.7891 0.944922 15.3855 0.544922 14.8909 0.544922H9.10912C8.61457 0.544922 8.21094 0.944922 8.21094 1.43947V1.56674H15.7928V1.43947H15.7891Z" fill="#001D3D"/>
<path d="M6.48705 18.4648L3.3125 23.4539H5.87977L8.11614 18.4648H6.48705Z" fill="#001D3D"/>
<path d="M17.5083 18.4648H15.8828L18.1192 23.4539H20.6864L17.5083 18.4648Z" fill="#001D3D"/>
<path d="M7.6938 21.1855L6.96289 22.8219H17.0356L16.3047 21.1855H7.6938Z" fill="#001D3D"/>
<path d="M8.19531 20.073H15.8026L15.2826 18.8984H8.71531L8.19531 20.073Z" fill="#001D3D"/>
</svg>
