<svg width="24" height="25" viewBox="0 0 24 25" fill="none" xmlns="http://www.w3.org/2000/svg">
<g clip-path="url(#clip0_2065_5912)">
<path d="M18.1426 14.4425L15.8551 7.4525C15.837 7.39822 15.8345 7.33998 15.8478 7.28433C15.861 7.22868 15.8895 7.17783 15.9301 7.1375L18.2251 4.8425C19.7926 3.2225 20.0626 1.925 20.0176 1.0925C20.0034 0.936318 19.9334 0.790475 19.8205 0.681667C19.7075 0.57286 19.5592 0.508369 19.4026 0.5H19.2376C18.4876 0.5 17.2201 0.815 15.6751 2.3075L13.4251 4.595C13.3954 4.62411 13.3602 4.64706 13.3216 4.6625C13.283 4.67795 13.2417 4.6856 13.2001 4.685H13.1101L1.91258 1.0175L1.23008 2L9.30758 8.045C9.34334 8.06983 9.37327 8.10215 9.39529 8.13971C9.4173 8.17727 9.43088 8.21917 9.43508 8.2625C9.43869 8.3043 9.43391 8.34639 9.42104 8.38632C9.40816 8.42624 9.38743 8.46319 9.36008 8.495L9.31508 8.54C8.46758 9.4775 5.64008 12.6575 4.81508 14.315C4.79027 14.3658 4.75195 14.4088 4.70432 14.4392C4.65669 14.4696 4.60159 14.4863 4.54508 14.4875H4.50008L0.997578 13.895L0.705078 14.75L4.03508 16.3325C4.09848 16.3645 4.14883 16.4175 4.17758 16.4825L5.76758 19.8125L6.61508 19.5575L6.00008 16.0625C5.98806 15.9989 5.9969 15.9332 6.02528 15.8751C6.05366 15.817 6.10007 15.7696 6.15758 15.74C8.10008 14.75 12.0001 11.2025 12.0001 11.1725C12.0636 11.1153 12.1472 11.0856 12.2326 11.09C12.2763 11.0937 12.3188 11.1062 12.3574 11.1268C12.3961 11.1474 12.4302 11.1758 12.4576 11.21L14.8726 14.4425H18.1426Z" fill="#001D3D"/>
<path d="M23.0859 15.0566H19.8234V17.6441C19.8221 17.6997 19.8062 17.7539 19.7772 17.8014C19.7482 17.8488 19.7072 17.8877 19.6584 17.9141C19.6118 17.9378 19.5606 17.9507 19.5084 17.9516C19.4489 17.9539 19.3906 17.9354 19.3434 17.8991L18.0009 16.9991L16.5759 17.8991C16.5281 17.9343 16.4701 17.9527 16.4109 17.9516C16.3587 17.9507 16.3074 17.9378 16.2609 17.9141C16.2123 17.888 16.172 17.8489 16.1442 17.8013C16.1164 17.7536 16.1023 17.6993 16.1034 17.6441V15.0566H12.8409C12.7864 15.0566 12.7341 15.0777 12.695 15.1155C12.6558 15.1532 12.6328 15.2048 12.6309 15.2591V24.2591C12.6309 24.3148 12.653 24.3683 12.6924 24.4076C12.7317 24.447 12.7852 24.4691 12.8409 24.4691H23.0859C23.141 24.4673 23.1933 24.4445 23.2323 24.4056C23.2713 24.3666 23.294 24.3142 23.2959 24.2591V15.2591C23.2939 15.2048 23.2709 15.1532 23.2318 15.1155C23.1926 15.0777 23.1403 15.0566 23.0859 15.0566ZM16.4109 22.9991H14.3559C14.2743 22.9991 14.1961 22.9667 14.1384 22.9091C14.0808 22.8514 14.0484 22.7732 14.0484 22.6916C14.0484 22.6101 14.0808 22.5319 14.1384 22.4742C14.1961 22.4165 14.2743 22.3841 14.3559 22.3841H16.4109C16.4918 22.386 16.5689 22.4191 16.6262 22.4763C16.6834 22.5336 16.7165 22.6107 16.7184 22.6916C16.7184 22.7732 16.686 22.8514 16.6283 22.9091C16.5706 22.9667 16.4924 22.9991 16.4109 22.9991ZM16.4109 21.7016H14.3559C14.2749 21.6997 14.1978 21.6667 14.1405 21.6095C14.0833 21.5522 14.0503 21.4751 14.0484 21.3941C14.0484 21.3126 14.0808 21.2344 14.1384 21.1767C14.1961 21.119 14.2743 21.0866 14.3559 21.0866H16.4109C16.4924 21.0866 16.5706 21.119 16.6283 21.1767C16.686 21.2344 16.7184 21.3126 16.7184 21.3941C16.7128 21.4724 16.6781 21.5458 16.6213 21.5999C16.5644 21.6541 16.4893 21.685 16.4109 21.6866V21.7016Z" fill="#001D3D"/>
<path d="M16.7168 17.0666L17.7893 16.3166C17.8402 16.2821 17.9003 16.2637 17.9618 16.2637C18.0233 16.2637 18.0834 16.2821 18.1343 16.3166L19.1993 17.0666V15.0566H16.7168V17.0666Z" fill="#001D3D"/>
</g>
<defs>
<clipPath id="clip0_2065_5912">
<rect width="24" height="24" fill="white" transform="translate(0 0.5)"/>
</clipPath>
</defs>
</svg>
