<svg width="24" height="24" viewBox="0 0 24 24" fill="none" xmlns="http://www.w3.org/2000/svg">
<g clip-path="url(#clip0_2065_5913)">
<path d="M17.7639 10.1073V6.75519C17.7639 6.64059 17.8094 6.53069 17.8905 6.44966C17.9715 6.36863 18.0814 6.3231 18.196 6.3231H21.5187L20.9864 5.49609H16.752V14.9155H17.2471C17.382 14.1812 17.7713 13.5178 18.3468 13.042L18.3584 13.0321C18.4194 12.982 18.482 12.9344 18.546 12.8886L18.5961 12.8532C18.6523 12.8147 18.7093 12.7785 18.7689 12.7435C18.7961 12.7275 18.8234 12.7115 18.851 12.6964C18.9033 12.667 18.9565 12.6389 19.0105 12.6125C19.0463 12.5948 19.0831 12.5788 19.1198 12.5624C19.169 12.5408 19.2183 12.5192 19.2684 12.5002C19.3185 12.4812 19.3574 12.4682 19.4024 12.4531C19.4473 12.438 19.4944 12.422 19.5415 12.4099C19.5886 12.3978 19.6456 12.3835 19.6983 12.3714C19.7415 12.3615 19.7848 12.3503 19.828 12.342C19.8893 12.3304 19.952 12.323 20.0142 12.3148C20.0509 12.3101 20.0868 12.3036 20.1235 12.3001C20.2212 12.2911 20.3201 12.2859 20.4199 12.2859H20.4277C20.5305 12.2859 20.6321 12.2911 20.7328 12.3006C20.7634 12.3036 20.7932 12.3092 20.8235 12.3131C20.8931 12.3213 20.9626 12.3304 21.0309 12.3433C21.0659 12.3498 21.1005 12.3589 21.135 12.3667C21.1977 12.3809 21.2599 12.3952 21.3208 12.4129C21.3558 12.4228 21.3904 12.4349 21.425 12.4462C21.4841 12.4652 21.5433 12.4855 21.6012 12.508C21.6349 12.5209 21.6678 12.5356 21.7011 12.5512C21.7581 12.5758 21.8147 12.6013 21.8704 12.629L21.9633 12.6778C22.0191 12.708 22.0739 12.7396 22.1275 12.7728L22.2139 12.8264C22.2684 12.8627 22.322 12.9012 22.3742 12.9405C22.3984 12.9591 22.4231 12.9768 22.4468 12.9958C22.5017 13.039 22.5544 13.0857 22.6063 13.1328C22.6253 13.15 22.6447 13.1669 22.6633 13.1846C22.7195 13.2382 22.7731 13.2944 22.8249 13.3518C22.8374 13.3652 22.8508 13.3782 22.8629 13.3924C22.9252 13.4629 22.9839 13.5363 23.0401 13.6124L23.0431 13.6163C23.2214 13.8601 23.3645 14.1277 23.4683 14.4113L23.4722 14.423C23.5041 14.512 23.5327 14.6027 23.5586 14.6952C23.5625 14.7099 23.5655 14.7254 23.5694 14.7384C23.5841 14.7976 23.5996 14.8563 23.6126 14.9173H23.7664C23.8573 14.9161 23.9442 14.8792 24.0081 14.8145C24.072 14.7498 24.1078 14.6625 24.1078 14.5716V10.5394H18.196C18.0814 10.5394 17.9715 10.4939 17.8905 10.4128C17.8094 10.3318 17.7639 10.2219 17.7639 10.1073Z" fill="#001D3D"/>
<path d="M7.60982 9.02344H6.12129V12.026C6.12094 12.0976 6.10268 12.1679 6.0682 12.2306C6.03371 12.2933 5.98408 12.3464 5.92383 12.3851C6.08603 12.3037 6.26478 12.2609 6.44622 12.2598H7.93605V9.34578C7.93548 9.25979 7.9008 9.17755 7.83963 9.11711C7.77847 9.05667 7.69581 9.02298 7.60982 9.02344Z" fill="#001D3D"/>
<path d="M10.3591 14.682L11.4708 15.3582V13.123H8.79883V15.3587L9.91058 14.6824C9.97823 14.6413 10.0559 14.6196 10.1351 14.6196C10.2142 14.6196 10.2919 14.6413 10.3595 14.6824L10.3591 14.682Z" fill="#001D3D"/>
<path d="M23.673 9.67545L22.0717 7.1875H18.625V9.67545H23.673Z" fill="#001D3D"/>
<path d="M0.228568 17.8967H5.25501V13.4463C5.25577 13.2357 5.31262 13.0291 5.41969 12.8477C5.52677 12.6664 5.68021 12.5168 5.86425 12.4144C5.80089 12.445 5.73086 12.4591 5.66062 12.4554C5.59038 12.4517 5.52221 12.4303 5.46241 12.3933L3.92073 11.4561L2.37517 12.3954C2.30963 12.4353 2.23464 12.4571 2.15793 12.4584C2.08121 12.4597 2.00552 12.4406 1.93865 12.403C1.87177 12.3653 1.81612 12.3106 1.77741 12.2443C1.7387 12.1781 1.71833 12.1027 1.7184 12.026V9.02344H0.228568C0.14258 9.02298 0.0599258 9.05667 -0.00124091 9.11711C-0.0624077 9.17755 -0.097085 9.25979 -0.0976562 9.34578V17.5744C-0.097085 17.6604 -0.0624077 17.7426 -0.00124091 17.8031C0.0599258 17.8635 0.14258 17.8972 0.228568 17.8967ZM1.40038 16.0621H2.95589C3.07048 16.0621 3.18039 16.1076 3.26142 16.1887C3.34245 16.2697 3.38797 16.3796 3.38797 16.4942C3.38797 16.6088 3.34245 16.7187 3.26142 16.7997C3.18039 16.8808 3.07048 16.9263 2.95589 16.9263H1.40038C1.28579 16.9263 1.17588 16.8808 1.09485 16.7997C1.01382 16.7187 0.968297 16.6088 0.968297 16.4942C0.968297 16.3796 1.01382 16.2697 1.09485 16.1887C1.17588 16.1076 1.28579 16.0621 1.40038 16.0621Z" fill="#001D3D"/>
<path d="M22.7994 15.5232C22.801 15.4868 22.7995 15.4504 22.7951 15.4143C22.7651 14.8054 22.503 14.2312 22.0625 13.8097C21.6221 13.3882 21.0369 13.1516 20.4272 13.1484C19.8618 13.1501 19.3158 13.3548 18.8886 13.7253C18.8605 13.7495 18.8285 13.7685 18.8022 13.7931C18.7758 13.8177 18.7482 13.8566 18.7192 13.8869C18.3294 14.2886 18.0959 14.8163 18.0607 15.375C18.054 15.4241 18.0512 15.4736 18.0525 15.5232C18.0403 15.8427 18.0927 16.1613 18.2066 16.4601C18.3204 16.7588 18.4934 17.0315 18.7151 17.2619C18.9368 17.4922 19.2027 17.6754 19.4969 17.8006C19.7911 17.9258 20.1075 17.9903 20.4272 17.9903C20.747 17.9903 21.0634 17.9258 21.3576 17.8006C21.6518 17.6754 21.9177 17.4922 22.1394 17.2619C22.3611 17.0315 22.5341 16.7588 22.6479 16.4601C22.7618 16.1613 22.8142 15.8427 22.802 15.5232H22.7994Z" fill="#001D3D"/>
<path d="M6.44211 13.1235C6.35594 13.1235 6.27329 13.1577 6.21236 13.2186C6.15142 13.2796 6.11719 13.3622 6.11719 13.4484V21.6753C6.11719 21.7615 6.15142 21.8441 6.21236 21.9051C6.27329 21.966 6.35594 22.0002 6.44211 22.0002H13.8234C13.9096 22.0002 13.9922 21.966 14.0532 21.9051C14.1141 21.8441 14.1484 21.7615 14.1484 21.6753V15.3543V15.3483V15.3418V13.448C14.1484 13.4053 14.1399 13.3631 14.1236 13.3236C14.1073 13.2842 14.0834 13.2484 14.0532 13.2182C14.023 13.188 13.9872 13.1641 13.9478 13.1478C13.9083 13.1315 13.8661 13.123 13.8234 13.123H12.3332V16.1273C12.3331 16.204 12.3127 16.2793 12.274 16.3455C12.2352 16.4117 12.1796 16.4664 12.1127 16.504C12.0459 16.5415 11.9702 16.5606 11.8935 16.5593C11.8168 16.5579 11.7419 16.5362 11.6764 16.4963L10.133 15.557L8.58915 16.4963C8.52364 16.5362 8.44869 16.5579 8.37201 16.5593C8.29533 16.5606 8.21968 16.5415 8.15282 16.504C8.08595 16.4664 8.03029 16.4117 7.99155 16.3455C7.95281 16.2793 7.93239 16.204 7.93238 16.1273V13.1235H6.44211ZM9.16771 20.1621C9.2823 20.1621 9.39221 20.2077 9.47324 20.2887C9.55427 20.3697 9.59979 20.4796 9.59979 20.5942C9.59979 20.7088 9.55427 20.8187 9.47324 20.8998C9.39221 20.9808 9.2823 21.0263 9.16771 21.0263H7.61436C7.49977 21.0263 7.38986 20.9808 7.30883 20.8998C7.2278 20.8187 7.18228 20.7088 7.18228 20.5942C7.18228 20.4796 7.2278 20.3697 7.30883 20.2887C7.38986 20.2077 7.49977 20.1621 7.61436 20.1621H9.16771Z" fill="#001D3D"/>
<path d="M2.58203 11.2573L3.69379 10.5811C3.76143 10.54 3.83908 10.5182 3.91825 10.5182C3.99742 10.5182 4.07507 10.54 4.14272 10.5811L5.25448 11.2573V9.02344H2.58203V11.2573Z" fill="#001D3D"/>
<path d="M15.617 2.00004H3.23989C3.20468 1.99946 3.1697 2.00592 3.137 2.01902C3.10431 2.03213 3.07456 2.05163 3.0495 2.07637C3.02443 2.10112 3.00455 2.13061 2.99102 2.16313C2.97749 2.19565 2.97059 2.23055 2.9707 2.26577V8.15681H5.68765H5.69586H7.60827C7.92338 8.15658 8.22571 8.28139 8.44889 8.50384C8.67207 8.7263 8.79787 9.02821 8.79867 9.34332V12.259H13.826C14.1413 12.2593 14.4436 12.3846 14.6665 12.6076C14.8895 12.8305 15.0148 13.1328 15.0151 13.4481V14.9172H15.8862V2.26577C15.8856 2.19487 15.8569 2.12709 15.8065 2.07728C15.756 2.02747 15.6879 1.99969 15.617 2.00004Z" fill="#001D3D"/>
</g>
<defs>
<clipPath id="clip0_2065_5913">
<rect width="24" height="24" fill="white"/>
</clipPath>
</defs>
</svg>
