<svg width="35" height="45" viewBox="0 0 35 45" fill="none" xmlns="http://www.w3.org/2000/svg">
<path d="M17.7557 0C13.2582 0.00598055 8.94667 1.7996 5.76646 4.98755C2.58625 8.17551 0.796982 12.4976 0.791016 17.006C0.791016 29.2149 16.5965 44.5062 17.268 45.151C17.3986 45.2783 17.5736 45.3494 17.7557 45.3494C17.9379 45.3494 18.1128 45.2783 18.2435 45.151C18.915 44.5062 34.7205 29.2149 34.7205 17.006C34.7145 12.4976 32.9252 8.17551 29.745 4.98755C26.5648 1.7996 22.2532 0.00598055 17.7557 0ZM17.7557 24.8005C16.2179 24.8005 14.7146 24.3433 13.4359 23.4869C12.1572 22.6304 11.1606 21.4131 10.5721 19.9888C9.9836 18.5646 9.82962 16.9974 10.1296 15.4854C10.4297 13.9734 11.1702 12.5846 12.2576 11.4945C13.345 10.4045 14.7305 9.66211 16.2388 9.36136C17.7471 9.06061 19.3105 9.21497 20.7313 9.80491C22.1521 10.3949 23.3664 11.3939 24.2208 12.6757C25.0752 13.9575 25.5312 15.4644 25.5312 17.006C25.53 19.0729 24.7104 21.0547 23.2525 22.5161C21.7946 23.9776 19.8175 24.7992 17.7557 24.8005Z" fill="#004687"/>
<rect x="4.93848" y="3.78125" width="25.6356" height="25.698" rx="12.8178" fill="white"/>
<g clip-path="url(#clip0_2007_3087)">
<path d="M25.5597 24.4715H24.8755V14.7603L17.7865 11.1016L10.695 14.7627V24.4715H10.0113C9.91073 24.4715 9.8291 24.5531 9.8291 24.6537C9.8291 24.7542 9.91073 24.8359 10.0113 24.8359H25.5597C25.6603 24.8359 25.7419 24.7542 25.7419 24.6537C25.7419 24.5531 25.6603 24.4715 25.5597 24.4715ZM23.0875 24.4715H22.2637C22.269 24.4513 22.2761 24.4319 22.2761 24.41V22.3887C22.2761 22.2546 22.1672 22.1458 22.0331 22.1458H21.2047V22.6729C21.2047 22.775 21.1221 22.8552 21.0225 22.8552C20.9204 22.8552 20.8403 22.775 20.8403 22.6729V22.1458H20.0118C19.8777 22.1458 19.7689 22.2546 19.7689 22.3887V24.41C19.7689 24.4319 19.7759 24.4513 19.7813 24.4715H19.3921C19.3974 24.4513 19.4045 24.4319 19.4045 24.41V22.3887C19.4045 22.2546 19.2956 22.1458 19.1615 22.1458H18.3331V22.6729C18.3331 22.775 18.2505 22.8552 18.1509 22.8552C18.0488 22.8552 17.9687 22.775 17.9687 22.6729V22.1458H17.1378C17.0037 22.1458 16.8949 22.2546 16.8949 22.3887V24.41C16.8949 24.4319 16.9019 24.4513 16.9073 24.4715H16.5181C16.5234 24.4513 16.5304 24.4319 16.5304 24.41V22.3887C16.5304 22.2546 16.4216 22.1458 16.2875 22.1458H15.4591V22.6729C15.4591 22.775 15.3789 22.8552 15.2769 22.8552C15.1773 22.8552 15.0947 22.775 15.0947 22.6729V22.1458H14.2662C14.1321 22.1458 14.0233 22.2546 14.0233 22.3887V24.41C14.0233 24.4319 14.0303 24.4513 14.0357 24.4715H12.483V14.8866H23.0875V24.4715Z" fill="#FBAE17"/>
<path d="M10.1546 14.6269L17.7424 10.7106C17.7704 10.6963 17.8036 10.6963 17.8316 10.7106L25.4194 14.6269C25.484 14.6601 25.5611 14.6132 25.5611 14.5406V13.2547C25.5611 13.2183 25.5407 13.185 25.5083 13.1685L17.8313 9.20606C17.8034 9.19173 17.7701 9.19173 17.7422 9.20606L10.0652 13.1685C10.0331 13.185 10.0127 13.2183 10.0127 13.2545V14.5404C10.0127 14.6132 10.09 14.6604 10.1546 14.6269Z" fill="#FBAE17"/>
<path d="M12.8477 15.25H22.7233V16.0541H12.8477V15.25Z" fill="#FBAE17"/>
<path d="M12.8477 16.4141H22.7233V17.2206H12.8477V16.4141Z" fill="#FBAE17"/>
<path d="M12.8477 17.5859H22.7233V18.3925H12.8477V17.5859Z" fill="#FBAE17"/>
<path d="M16.2877 19.2734H15.4592V19.8006C15.4592 19.9027 15.3791 19.9828 15.277 19.9828C15.1774 19.9828 15.0948 19.9027 15.0948 19.8006V19.2734H14.2664C14.1323 19.2734 14.0234 19.3823 14.0234 19.5164V21.5377C14.0234 21.6718 14.1323 21.7806 14.2664 21.7806H16.2877C16.4218 21.7806 16.5306 21.6718 16.5306 21.5377V19.5164C16.5306 19.3823 16.422 19.2734 16.2877 19.2734Z" fill="#FBAE17"/>
<path d="M19.1622 19.2734H18.3337V19.8006C18.3337 19.9027 18.2511 19.9828 18.1515 19.9828C18.0495 19.9828 17.9693 19.9027 17.9693 19.8006V19.2734H17.1385C17.0043 19.2734 16.8955 19.3823 16.8955 19.5164V21.5377C16.8955 21.6718 17.0043 21.7806 17.1385 21.7806H19.1622C19.2963 21.7806 19.4051 21.6718 19.4051 21.5377V19.5164C19.4051 19.3823 19.2965 19.2734 19.1622 19.2734Z" fill="#FBAE17"/>
</g>
<defs>
<clipPath id="clip0_2007_3087">
<rect width="17.006" height="17.006" fill="white" transform="translate(9.28223 8.50781)"/>
</clipPath>
</defs>
</svg>
